<svg xmlns="http://www.w3.org/2000/svg" xmlns:xlink="http://www.w3.org/1999/xlink" xmlns:lucid="lucid" width="5228.8" height="3676.8"><g transform="translate(2582.3999999999996 0)" lucid:page-tab-id="0_0"><path d="M0 0h2646.4v1870.4H0z" fill="#fff"/><path d="M32 37c0-2.76 2.24-5 5-5h838c2.76 0 5 2.24 5 5v38c0 2.76-2.24 5-5 5H37c-2.76 0-5-2.24-5-5z" fill="none"/><use xlink:href="#a" transform="matrix(1,0,0,1,32,32) translate(0 31.11111111111111)"/><path d="M-1200 80h2435" stroke="#999" stroke-width="2" fill="none"/><path d="M1236.58 79.75L1235 80v-1h2.6z" fill="#999"/><path d="M552 37c0-2.76 2.24-5 5-5h678c2.76 0 5 2.24 5 5v38c0 2.76-2.24 5-5 5H557c-2.76 0-5-2.24-5-5z" fill="none"/><use xlink:href="#b" transform="matrix(1,0,0,1,552,32) translate(392.4444444444474 28.4444444444444)"/><use xlink:href="#c" transform="matrix(1,0,0,1,552,32) translate(468.8641975308664 28.4444444444444)"/><use xlink:href="#d" transform="matrix(1,0,0,1,552,32) translate(493.12345679012543 28.4444444444444)"/><use xlink:href="#e" transform="matrix(1,0,0,1,552,32) translate(601.5802469135812 28.4444444444444)"/><use xlink:href="#f" transform="matrix(1,0,0,1,552,32) translate(638.6172839506178 28.4444444444444)"/><path d="M-880 1865c0-2.76 2.24-5 5-5H925c2.76 0 5 2.24 5 5v90c0 2.76-2.24 5-5 5H-875c-2.76 0-5-2.24-5-5z" stroke="#666" stroke-width="2" fill="#fff"/><use xlink:href="#g" transform="matrix(1,0,0,1,-880,1860) translate(837.15 53.6)"/><use xlink:href="#h" transform="matrix(1,0,0,1,-880,1860) translate(880.05 53.6)"/><path d="M-1220 1025c0-2.76 2.24-5 5-5h90c2.76 0 5 2.24 5 5v170c0 2.76-2.24 5-5 5h-90c-2.76 0-5-2.24-5-5z" stroke="#666" stroke-width="2" fill="#fff"/><use xlink:href="#i" transform="matrix(1,0,0,1,-1220,1020) translate(37.525 93.60000000000001)"/><path d="M-880 1025c0-2.76 2.24-5 5-5h90c2.76 0 5 2.24 5 5v170c0 2.76-2.24 5-5 5h-90c-2.76 0-5-2.24-5-5z" stroke="#666" stroke-width="2" fill="#fff"/><use xlink:href="#j" transform="matrix(1,0,0,1,-880,1020) translate(40.025 93.60000000000001)"/><path d="M280 744c0-2.76 2.24-5 5-5h30c2.76 0 5 2.24 5 5v790c0 2.76-2.24 5-5 5h-30c-2.76 0-5-2.24-5-5z" stroke="#666" stroke-width="2" fill="#fff"/><use xlink:href="#k" transform="matrix(6.123233995736766e-17,-1,1,6.123233995736766e-17,280,1539) translate(376.525 23.6)"/><path d="M640 744c0-2.76 2.24-5 5-5h30c2.76 0 5 2.24 5 5v790c0 2.76-2.24 5-5 5h-30c-2.76 0-5-2.24-5-5z" stroke="#666" stroke-width="2" fill="#fff"/><use xlink:href="#l" transform="matrix(6.123233995736766e-17,-1,1,6.123233995736766e-17,640,1539) translate(364.55 23.6)"/><path d="M1020 745c0-2.76 2.24-5 5-5h30c2.76 0 5 2.24 5 5v790c0 2.76-2.24 5-5 5h-30c-2.76 0-5-2.24-5-5z" stroke="#666" stroke-width="2" fill="#fff"/><use xlink:href="#m" transform="matrix(6.123233995736766e-17,-1,1,6.123233995736766e-17,1020,1540) translate(370.55 23.6)"/><path d="M770 1065c0-2.76 2.24-5 5-5h150c2.76 0 5 2.24 5 5v190c0 2.76-2.24 5-5 5H775c-2.76 0-5-2.24-5-5z" stroke="#666" stroke-width="2" fill="#fff"/><use xlink:href="#n" transform="matrix(1,0,0,1,770,1060) translate(66.05 103.60000000000001)"/><path d="M-460 935c0-2.76 2.24-5 5-5h190c2.76 0 5 2.24 5 5v410c0 2.76-2.24 5-5 5h-190c-2.76 0-5-2.24-5-5z" stroke="#666" stroke-width="2" fill="#fff"/><use xlink:href="#o" transform="matrix(1,0,0,1,-460,930) translate(64.07499999999999 170.4)"/><use xlink:href="#p" transform="matrix(1,0,0,1,-460,930) translate(94.525 192)"/><use xlink:href="#q" transform="matrix(1,0,0,1,-460,930) translate(88 213.6)"/><use xlink:href="#r" transform="matrix(1,0,0,1,-460,930) translate(91.025 235.20000000000002)"/><use xlink:href="#s" transform="matrix(1,0,0,1,-460,930) translate(87.05 256.8)"/><path d="M424.83 1286.45c-2.67.7-4.83-.95-4.83-3.7V1025c0-2.76 2.16-4.42 4.83-3.7l110.34 29.4c2.67.72 4.83 3.54 4.83 6.3v193.74c0 2.76-2.16 5.58-4.83 6.3z" stroke="#666" stroke-width="2" fill="#fff"/><use xlink:href="#t" transform="matrix(6.123233995736766e-17,-1,1,6.123233995736766e-17,420,1287.7391491088229) translate(115.575 63.6)"/><path d="M-20 934c0-2.76 2.24-5 5-5H95c2.76 0 5 2.24 5 5v410c0 2.76-2.24 5-5 5H-15c-2.76 0-5-2.24-5-5z" stroke="#666" stroke-width="2" fill="#fff"/><use xlink:href="#u" transform="matrix(1,0,0,1,-20,929) translate(28.049999999999997 213.6)"/><path d="M-460 1405c0-2.76 2.24-5 5-5h190c2.76 0 5 2.24 5 5v110c0 2.76-2.24 5-5 5h-190c-2.76 0-5-2.24-5-5z" stroke="#666" stroke-width="2" fill="#fff"/><use xlink:href="#v" transform="matrix(1,0,0,1,-460,1400) translate(81.5 52.8)"/><use xlink:href="#w" transform="matrix(1,0,0,1,-460,1400) translate(70.07499999999999 74.4)"/><path d="M1150 1059c0-2.76 2.24-5 5-5h50c2.76 0 5 2.24 5 5v190c0 2.76-2.24 5-5 5h-50c-2.76 0-5-2.24-5-5z" stroke="#666" stroke-width="2" fill="#fff"/><use xlink:href="#x" transform="matrix(1,0,0,1,1150,1054) translate(10.049999999999997 103.60000000000001)"/><path d="M-580 365c0-2.76 2.24-5 5-5H935c2.76 0 5 2.24 5 5v50c0 2.76-2.24 5-5 5H-575c-2.76 0-5-2.24-5-5z" stroke="#666" stroke-width="2" fill="#fff"/><use xlink:href="#y" transform="matrix(1,0,0,1,-580,360) translate(695.65 33.6)"/><use xlink:href="#z" transform="matrix(1,0,0,1,-580,360) translate(738.6 33.6)"/><path d="M-120 1625c0-2.76 2.24-5 5-5h490c2.76 0 5 2.24 5 5v130c0 2.76-2.24 5-5 5h-490c-2.76 0-5-2.24-5-5z" stroke="#666" stroke-width="2" fill="#fff"/><use xlink:href="#A" transform="matrix(1,0,0,1,-120,1620) translate(214.075 30.39999999999999)"/><use xlink:href="#B" transform="matrix(1,0,0,1,-120,1620) translate(244.525 51.99999999999999)"/><use xlink:href="#C" transform="matrix(1,0,0,1,-120,1620) translate(238 73.6)"/><use xlink:href="#D" transform="matrix(1,0,0,1,-120,1620) translate(241.025 95.20000000000002)"/><use xlink:href="#E" transform="matrix(1,0,0,1,-120,1620) translate(181.2 116.80000000000001)"/><use xlink:href="#F" transform="matrix(1,0,0,1,-120,1620) translate(283.95 116.80000000000001)"/><path d="M-160 720c0 44.18-35.82 80-80 80s-80-35.82-80-80 35.82-80 80-80 80 35.82 80 80z" stroke="#666" stroke-width="2" fill="#fff"/><use xlink:href="#G" transform="matrix(1,0,0,1,-320,640) translate(49.599999999999994 83.60000000000001)"/><path d="M-139 525c0-2.76 2.24-5 5-5H14c2.76 0 5 2.24 5 5v150c0 2.76-2.24 5-5 5h-148c-2.76 0-5-2.24-5-5z" stroke="#666" stroke-width="2" fill="#fff"/><use xlink:href="#H" transform="matrix(1,0,0,1,-134,525) translate(12.649999999999991 78.60000000000001)"/><path d="M-880.23 645c0-2.76 2.24-5 5-5H-785c2.76 0 5 2.24 5 5v90c0 2.76-2.24 5-5 5h-90.23c-2.76 0-5-2.24-5-5z" stroke="#666" stroke-width="2" fill="#fff"/><use xlink:href="#x" transform="matrix(1,0,0,1,-875.2259102204904,645) translate(25.549999999999997 48.6)"/><path d="M-1120 1110h239" stroke="#999" stroke-width="2" fill="none"/><path fill="#999"/><path d="M-881 1110l-14.27 4.64v-9.28z" fill="#999"/><path d="M-880 1109.27v1.46l-16.27 5.28v-12zm-14.27 4l10.03-3.27-10.03-3.26zM-733.14 1111H-780v-2h46.86zm112.14 0h-80.24v-2H-621z" fill="#999"/><path fill="#999"/><path d="M-621 1110l-14.27 4.64v-9.28z" fill="#999"/><path d="M-617.76 1110l-18.5 6v-12zm-16.5 3.26l10.02-3.26-10.03-3.26z" fill="#999"/><use xlink:href="#I" transform="matrix(1,0,0,1,-733.1395045722359,1099.2) translate(0.005000000000000782 14.4)"/><path d="M-239 847.08l.82 2.5 2 1.45 1.26.2h86v2h-86.16l-1.9-.3-2.9-2.12-1.12-3.4V800h2zm518 4.16v2H-85.02v-2zM-239 800h-1 .68l.32-.02zm-2 0h1z" fill="#999"/><path d="M279 852.24l-14.27 4.63v-9.27z" fill="#999"/><path d="M280 851.5v1.46l-16.27 5.3v-12.03zm-14.27 4l10.03-3.26-10.03-3.26z" fill="#999"/><use xlink:href="#J" transform="matrix(1,0,0,1,-148.91554971356726,841.4377564848895) translate(0.004999999999999005 14.4)"/><path d="M-734.92 779l1.9.3 2.9 2.13 1.12 3.4v80.25l-.3 1.9-2.13 2.9-3.4 1.12H-780v-2h44.84l2.5-.82 1.46-2 .2-1.26v-79.76l-.82-2.5-2-1.46-1.26-.2h-68.32v-2zm-181.23-58l-1.26.2-2 1.46-.83 2.5v49.76l.2 1.26 1.47 2 2.5.82h43.8v2h-44.13l-3.4-1.1-2.12-2.92-.3-1.9v-50.24l1.1-3.4 2.92-2.13 1.9-.3h35.07v2z" fill="#999"/><path fill="#999"/><path d="M-881.23 720l-14.26 4.64v-9.28z" fill="#999"/><path d="M-880.23 719.27v1.46L-896.5 726v-12zm-14.26 4l10.04-3.27-10.03-3.26z" fill="#999"/><use xlink:href="#K" transform="matrix(1,0,0,1,-872.2536006058058,769.2) translate(0.005000000000002558 14.4)"/><use xlink:href="#L" transform="matrix(1,0,0,1,-872.2536006058058,769.2) translate(43.90500000000001 14.4)"/><path d="M-620 744c0-2.76 2.24-5 5-5h30c2.76 0 5 2.24 5 5v790c0 2.76-2.24 5-5 5h-30c-2.76 0-5-2.24-5-5z" stroke="#666" stroke-width="2" fill="#fff"/><use xlink:href="#M" transform="matrix(6.123233995736766e-17,-1,1,6.123233995736766e-17,-620,1539) translate(380.55 23.6)"/><path d="M-204.97 550.33h-711.1l-2.5.82-1.45 2-.2 1.26v104.34l.8 2.5 2 1.46 1.27.2h34.92v2h-35.08l-1.9-.3-2.9-2.13-1.13-3.4V554.24l.3-1.9 2.13-2.9 3.4-1.12h711.43zm64.97 0h-15.12v-2H-140zM-139 550.33h-1v-2h1z" fill="#999"/><path d="M-881.23 663.9l-14.26 4.63v-9.27z" fill="#999"/><path d="M-880.23 663.17v1.46l-16.26 5.28v-12zm-14.26 4l10.04-3.27-10.03-3.26z" fill="#999"/><use xlink:href="#N" transform="matrix(1,0,0,1,-204.96870757784114,538.5345657459686) translate(0.004999999999999005 14.4)"/><path d="M-206 601h-618.95l-2.5.82-1.46 2-.2 1.26V640h-2v-35.08l.3-1.9 2.12-2.9 3.4-1.12h619.3zm67 0h-15.1v-2h15.1z" fill="#999"/><path fill="#999"/><path d="M-830.1 640l-4.65-14.27h9.27z" fill="#999"/><path d="M-829.06 640h-2.1l-4.96-15.27h12.02zm-4.3-13.27l3.25 10.03 3.25-10.03z" fill="#999"/><use xlink:href="#O" transform="matrix(1,0,0,1,-205.99370757784112,589.2) translate(0.004999999999999005 14.4)"/><path d="M-991.55 471h-173.3l-2.5.82-1.45 2-.2 1.26V1020h-2V474.92l.3-1.9 2.13-2.9 3.4-1.12h173.62zm431.22-5.84l-1.12 3.4-2.9 2.13-1.9.3h-352.4v-2h352.24l1.25-.2 2-1.46.82-2.5V421h2zM-560.33 421h-2v-1h2z" fill="#999"/><path d="M-1170 1020l-4.64-14.27h9.28z" fill="#999"/><path d="M-1168.95 1020h-2.1l-4.96-15.27h12zm-4.3-13.27l3.25 10.03 3.26-10.03z" fill="#999"/><use xlink:href="#P" transform="matrix(1,0,0,1,-991.5483148055199,459.2) translate(0.005000000000002558 14.4)"/><use xlink:href="#Q" transform="matrix(1,0,0,1,-991.5483148055199,459.2) translate(34.955000000000005 14.4)"/><path d="M-560.43 1499.6l2.12 2.9.3 1.9v227.1l.82 2.5 2 1.46 1.26.2h276.1v2H-554.1l-1.9-.3-2.9-2.12-1.12-3.4v-227.3l-.2-1.25-1.46-2-2.5-.83H-579v-2h15.16zM-121 1735.66v2h-87.03v-2zM-579 1500.47h-1v-2h1z" fill="#999"/><path d="M-121 1736.67l-14.27 4.63v-9.27z" fill="#999"/><path d="M-120 1735.94v1.45l-16.27 5.28v-12.03zm-14.27 4l10.03-3.27-10.03-3.26z" fill="#999"/><use xlink:href="#R" transform="matrix(1,0,0,1,-277.8274529348183,1715.0666666666666) translate(0.005000000000002558 14.4)"/><use xlink:href="#S" transform="matrix(1,0,0,1,-277.8274529348183,1715.0666666666666) translate(27.955000000000005 14.4)"/><use xlink:href="#T" transform="matrix(1,0,0,1,-277.8274529348183,1715.0666666666666) translate(0.005000000000002558 36)"/><use xlink:href="#U" transform="matrix(1,0,0,1,-277.8274529348183,1715.0666666666666) translate(27.955000000000005 36)"/><path d="M120.67 1055.14H101v-2h19.67zm158.33 0H156.67v-2H279zM101 1055.14h-1v-2h1z" fill="#999"/><path d="M279 1054.14l-14.27 4.63v-9.27z" fill="#999"/><path d="M280 1053.4v1.47l-16.27 5.28v-12.02zm-14.27 4l10.03-3.26-10.03-3.26z" fill="#999"/><use xlink:href="#V" transform="matrix(1,0,0,1,120.66666666666129,1043.3391868807264) translate(0.004999999999999005 14.4)"/><path d="M119.33 1230.78H101v-2h18.33zm159.67 0H155.33v-2H279zM101 1230.78h-1v-2h1z" fill="#999"/><path d="M279 1229.78l-14.27 4.63v-9.26z" fill="#999"/><path d="M280 1229.05v1.45l-16.27 5.3v-12.03zm-14.27 4l10.03-3.27-10.03-3.26z" fill="#999"/><use xlink:href="#W" transform="matrix(1,0,0,1,119.3333333333278,1218.977275150271) translate(0.004999999999999005 14.4)"/><path d="M-92.07 803.92l.2 1.26 1.46 2 2.5.82h261.03l1.9.3 2.9 2.13 1.12 3.4v240.3h-2V814.17l-.82-2.5-2-1.46-1.26-.2h-261.2l-3.4-1.1-2.14-2.92-.3-1.9V681h2z" fill="#999"/><path d="M-88.44 695.27h-9.27l4.63-14.27z" fill="#999"/><path d="M-87.06 696.27h-12.02L-93.8 680h1.46zm-9.27-2h6.52l-3.27-10.03zM-20.1 773.92l.2 1.26 1.45 2 2.5.82H206.9l1.9.3 2.92 2.13 1.1 3.4v440.43h-2v-440.1l-.8-2.5-2-1.46-1.27-.2H-16.27l-3.4-1.1-2.13-2.92-.3-1.9V681h2zM212.83 1227.26h-2v-3h2z" fill="#999"/><path d="M-16.47 695.27h-9.27L-21.1 681z" fill="#999"/><path d="M-15.1 696.27h-12.02l5.28-16.27h1.46zm-9.27-2h6.52l-3.26-10.03z" fill="#999"/><path d="M168 1042h20v20h-20z" fill="none"/><path d="M184.25 1052c0 3.45-2.8 6.25-6.25 6.25s-6.25-2.8-6.25-6.25 2.8-6.25 6.25-6.25 6.25 2.8 6.25 6.25" stroke="#999" stroke-width="2" fill="#999"/><path d="M200 1219h20v20h-20z" fill="none"/><path d="M216.25 1229c0 3.45-2.8 6.25-6.25 6.25s-6.25-2.8-6.25-6.25 2.8-6.25 6.25-6.25 6.25 2.8 6.25 6.25" stroke="#999" stroke-width="2" fill="#999"/><path d="M38.94 857v71M38.94 857v-3" stroke="#999" stroke-width="2" fill="none"/><path d="M38.94 928l-4.64-14.27h9.27z" fill="#999"/><path d="M39.67 929H38.2l-5.27-16.27h12.02zm-4-14.27l3.27 10.03 3.26-10.03zM-499 1425.92l.82 2.5 2 1.46 1.26.2H-461v2h-34.08l-1.9-.3-2.9-2.13-1.12-3.4v-14.87h2zm260-60.76l-1.1 3.4-2.92 2.13-1.9.3h-249.92l-2.5.82-1.46 2-.2 1.26v14.7h-2v-14.86l.3-1.9 2.13-2.9 3.4-1.12h250.1l1.25-.2 2-1.46.82-2.5v-512.6h2z" fill="#999"/><path d="M-461 1431.08l-14.27 4.64v-9.27z" fill="#999"/><path d="M-460 1430.36v1.45l-16.27 5.3v-12.03zm-14.27 3.98l10.03-3.26-10.03-3.26z" fill="#999"/><use xlink:href="#O" transform="matrix(1,0,0,1,-525.95,1389.7784888414492) translate(0.004999999999999005 14.4)"/><path d="M-519.38 1474.23l.26.62h4.56v2h-5.14l-.92-.4-.26-.6H-579v-2h58.7zm58.38.62v2h-16.56v-2zM-579 1475.85h-1v-2h1z" fill="#999"/><path d="M-461 1475.85l-14.27 4.63v-9.27z" fill="#999"/><path d="M-460 1475.12v1.45l-16.27 5.3v-12.04zm-14.27 3.98l10.03-3.25-10.03-3.26z" fill="#999"/><use xlink:href="#X" transform="matrix(1,0,0,1,-514.5570650827162,1465.0457329883016) translate(0.004999999999999005 14.4)"/><path d="M-108.87 1317h-13.32l-1.25.2-2 1.46-.82 2.5v133.92l-.3 1.9-2.13 2.9-3.4 1.12H-260v-2h127.57l2.5-.82 1.46-2 .2-1.26v-134.08l1.12-3.4 2.9-2.13 1.9-.3h13.48zm87.87 0h-50.87v-2H-21z" fill="#999"/><path fill="#999"/><path d="M-21 1316l-14.27 4.64v-9.27z" fill="#999"/><path d="M-20 1315.27v1.46l-16.27 5.28v-12zm-14.27 4l10.03-3.27-10.03-3.26z" fill="#999"/><use xlink:href="#X" transform="matrix(1,0,0,1,-108.8687413289071,1305.200537430948) translate(0.004999999999999005 14.4)"/><path d="M-134.4 1281.83h-70.52l-1.26.2-2 1.47-.82 2.5v369.6l.2 1.25 1.46 2 2.5.82H-121v2h-84.16l-3.4-1.12-2.13-2.9-.3-1.9v-370.08l1.1-3.4 2.92-2.13 1.9-.3h70.67zm113.4 0h-74.5v-2H-21zM-120 1661.67h-1v-2h1z" fill="#999"/><path d="M-21 1280.83l-14.27 4.64v-9.27z" fill="#999"/><path d="M-20 1280.1v1.46l-16.27 5.3v-12.04zm-14.27 4l10.03-3.27-10.03-3.26z" fill="#999"/><use xlink:href="#Y" transform="matrix(1,0,0,1,-134.4102429257561,1270.0336416802322) translate(0.004999999999999005 14.4)"/><path d="M-220 1540h20v20h-20z" fill="none"/><path d="M-203.75 1550c0 3.45-2.8 6.25-6.25 6.25s-6.25-2.8-6.25-6.25 2.8-6.25 6.25-6.25 6.25 2.8 6.25 6.25" stroke="#999" stroke-width="2" fill="#999"/><path d="M41 1545.05l-.3 1.9-2.13 2.9-3.4 1.12h-237.92v-2h237.6l2.5-.82 1.45-2 .2-1.26v-131.35h2zm0-153.1h-2V1349h2zM-202.75 1550.97h-3v-2h3z" fill="#999"/><path d="M44.64 1363.27h-9.28L40 1349z" fill="#999"/><path d="M46 1364.27H34l4.95-15.27h2.1zm-9.26-2h6.52L40 1352.24z" fill="#999"/><use xlink:href="#O" transform="matrix(1,0,0,1,14.049999999999997,1391.9457296380474) translate(0.004999999999999005 14.4)"/><path d="M-1010 1100h20v20h-20z" fill="none"/><path d="M-993.75 1110c0 3.45-2.8 6.25-6.25 6.25s-6.25-2.8-6.25-6.25 2.8-6.25 6.25-6.25 6.25 2.8 6.25 6.25" stroke="#999" stroke-width="2" fill="#999"/><path d="M30 840h20v20H30z" fill="none"/><path d="M46.25 850c0 3.45-2.8 6.25-6.25 6.25s-6.25-2.8-6.25-6.25 2.8-6.25 6.25-6.25 6.25 2.8 6.25 6.25" stroke="#999" stroke-width="2" fill="#999"/><path d="M-81.43 904.93l2.12 2.9.3 1.9v50.3l.82 2.5 2 1.45 1.26.2H-21v2h-54.08l-1.9-.3-2.9-2.12-1.12-3.4V909.9l-.2-1.27-1.46-2-2.5-.8h-172.18v-2h172.5zm-497.57.9v-2h296.7v2zM-579 905.82h-1v-2h1z" fill="#999"/><path d="M-21 965.2l-14.27 4.62v-9.27z" fill="#999"/><path d="M-20 964.46v1.45l-16.27 5.3v-12.02zm-14.27 4l10.03-3.27-10.03-3.27z" fill="#999"/><use xlink:href="#i" transform="matrix(1,0,0,1,-282.2907773511817,894.0185517381846) translate(0.005000000000000782 14.4)"/><path d="M321 1058.54h98" stroke="#999" stroke-width="2" fill="none"/><path d="M321 1059.54h-1v-2h1zM419 1058.54l-14.27 4.63v-9.27z" fill="#999"/><path d="M420 1057.8v1.46l-16.27 5.3v-12.03zm-14.27 4l10.03-3.26-10.03-3.26z" fill="#999"/><use xlink:href="#V" transform="matrix(1,0,0,1,352,1062.5371399941814) translate(0.004999999999999005 14.4)"/><path d="M321 1229.12h98" stroke="#999" stroke-width="2" fill="none"/><path d="M321 1230.12h-1v-2h1zM419 1229.12l-14.27 4.64v-9.27z" fill="#999"/><path d="M420 1228.4v1.45l-16.27 5.3v-12.04zm-14.27 3.98l10.03-3.26-10.03-3.25z" fill="#999"/><use xlink:href="#W" transform="matrix(1,0,0,1,364.6870576537153,1233.1241260831503) translate(0.004999999999999005 14.4)"/><path d="M540 1153.87h99" stroke="#999" stroke-width="2" fill="none"/><path fill="#999"/><path d="M639 1153.87l-14.27 4.63v-9.27z" fill="#999"/><path d="M640 1153.14v1.46l-16.27 5.28v-12.02zm-14.27 4l10.03-3.27-10.03-3.26z" fill="#999"/><use xlink:href="#Z" transform="matrix(1,0,0,1,542.6039132885993,1128.2695745544115) translate(0.005000000000002558 14.4)"/><use xlink:href="#aa" transform="matrix(1,0,0,1,542.6039132885993,1128.2695745544115) translate(41.855000000000004 14.4)"/><path d="M930 1160h89" stroke="#999" stroke-width="2" fill="none"/><path fill="#999"/><path d="M1019 1160l-14.27 4.64v-9.28z" fill="#999"/><path d="M1020 1159.27v1.46l-16.27 5.28v-12zm-14.27 4l10.03-3.27-10.03-3.26z" fill="#999"/><use xlink:href="#ab" transform="matrix(1,0,0,1,954.0249999999999,1112.8000000000002) translate(0.004999999999999005 14.4)"/><use xlink:href="#ac" transform="matrix(1,0,0,1,954.0249999999999,1112.8000000000002) translate(1.0299999999999976 36)"/><path d="M1061 1162.75h88" stroke="#999" stroke-width="2" fill="none"/><path d="M1061 1163.75h-1v-2h1zM1149 1162.75l-14.27 4.64v-9.28z" fill="#999"/><path d="M1150 1162.03v1.45l-16.27 5.3v-12.04zm-14.27 3.98l10.03-3.25-10.03-3.25z" fill="#999"/><use xlink:href="#ad" transform="matrix(1,0,0,1,1060.3204813599903,1137.1541855485445) translate(0.005000000000002558 14.4)"/><use xlink:href="#ae" transform="matrix(1,0,0,1,1060.3204813599903,1137.1541855485445) translate(45.955000000000005 14.4)"/><path d="M297.92 738h-2V553.5h2zm0-206.1h-2V421h2zM297.92 421h-2v-1h2z" fill="#999"/><path d="M296.92 738l-4.64-14.27h9.27z" fill="#999"/><path d="M297.64 739h-1.45l-5.3-16.27h12.03zm-3.98-14.27l3.26 10.03 3.26-10.03z" fill="#999"/><use xlink:href="#af" transform="matrix(1,0,0,1,251.9668057639372,531.8905507850867) translate(0.005000000000002558 14.4)"/><use xlink:href="#Q" transform="matrix(1,0,0,1,251.9668057639372,531.8905507850867) translate(51.955000000000005 14.4)"/><path d="M660.93 738h-2V560.03h2zm0-199.57h-2V421h2zM660.93 421h-2v-1h2z" fill="#999"/><path d="M659.93 738l-4.63-14.27h9.27z" fill="#999"/><path d="M660.66 739h-1.45l-5.28-16.27h12.02zm-4-14.27l3.27 10.03 3.26-10.03z" fill="#999"/><use xlink:href="#ag" transform="matrix(1,0,0,1,603.006979382104,538.4289911559913) translate(0.005000000000002558 14.4)"/><use xlink:href="#Q" transform="matrix(1,0,0,1,603.006979382104,538.4289911559913) translate(75.905 14.4)"/><path d="M1041 740h-2V558.4h2zm-2.43-349.9l2.12 2.92.3 1.9V536.8h-2V395.07l-.2-1.26-1.46-2-2.5-.82H940v-2h95.16z" fill="#999"/><path fill="#999"/><path d="M1040 740l-4.64-14.27h9.28z" fill="#999"/><path d="M1041.05 740h-2.1l-4.96-15.27h12zm-4.3-13.27l3.25 10.03 3.26-10.03z" fill="#999"/><use xlink:href="#ah" transform="matrix(1,0,0,1,980.125,536.7943810632652) translate(0.005000000000002558 14.4)"/><use xlink:href="#Q" transform="matrix(1,0,0,1,980.125,536.7943810632652) translate(81.805 14.4)"/><path d="M-743.02 409.3l2.9 2.13 1.12 3.4V685.1l-.3 1.9-2.13 2.9-3.4 1.12H-780v-2h34.84l2.5-.82 1.46-2 .2-1.26V415.16l-.82-2.5-2-1.46-1.26-.2h-509.76l-2.5.82-1.46 2-.2 1.26v689.76l.82 2.5 2 1.46 1.26.2h34.92v2h-35.08l-1.9-.3-2.9-2.13-1.12-3.4V414.9l.3-1.9 2.13-2.9 3.4-1.12h510.25z" fill="#999"/><path fill="#999"/><path d="M-1220 1110l-14.27 4.64v-9.28z" fill="#999"/><path d="M-1220 1108.95v2.1l-15.27 4.96v-12zm-13.27 4.3l10.03-3.25-10.03-3.26z" fill="#999"/><path d="M-880.23 825c0-2.76 2.24-5 5-5H-785c2.76 0 5 2.24 5 5v90c0 2.76-2.24 5-5 5h-90.23c-2.76 0-5-2.24-5-5z" stroke="#666" stroke-width="2" fill="#fff"/><use xlink:href="#ai" transform="matrix(1,0,0,1,-875.2259102204899,825) translate(20.599999999999998 48.6)"/><path d="M-1001.1 1472.87l.83 2.5 2 1.46 1.26.2h376v2h-376.17l-1.9-.3-2.9-2.13-1.12-3.4v-358.53h2z" fill="#999"/><path d="M-1001.1 1114.67h-2v-3h2zM-621 1478.03l-14.27 4.64v-9.27z" fill="#999"/><path d="M-620 1477.3v1.46l-16.27 5.3V1472zm-14.27 4l10.03-3.27-10.03-3.25z" fill="#999"/><path d="M-1120 1110h114.9c2.75 0 5-2.24 5-5V875c0-2.76 2.23-5 5-5h114.87" stroke="#999" stroke-width="2" fill="none"/><path fill="#999"/><path d="M-880.23 870l-14.26 4.64v-9.28z" fill="#999"/><path d="M-880.23 868.95v2.1L-895.5 876v-12zm-13.26 4.3l10.04-3.25-10.03-3.26zM-146.47 1006.3H-259v-2h112.53zm125.47 0h-112.53v-2H-21zM-259 1006.3h-1v-2h1z" fill="#999"/><path d="M-21 1005.3l-14.27 4.62v-9.27z" fill="#999"/><path d="M-20 1004.56v1.45l-16.27 5.3v-12.03zm-14.27 3.98l10.03-3.25-10.03-3.27z" fill="#999"/><use xlink:href="#aj" transform="matrix(1,0,0,1,-146.475,994.4852070265913) translate(0.004999999999999893 14.4)"/><path d="M-146.47 1056.96H-259v-2h112.53zm125.47 0h-112.53v-2H-21zM-259 1056.96h-1v-2h1z" fill="#999"/><path d="M-21 1055.96l-14.27 4.63v-9.28z" fill="#999"/><path d="M-20 1055.23v1.45l-16.27 5.3v-12.03zm-14.27 4l10.03-3.27-10.03-3.26z" fill="#999"/><use xlink:href="#ak" transform="matrix(1,0,0,1,-146.475,1045.1581199011023) translate(0.004999999999999893 14.4)"/><path d="M-145.47 1097.82H-259v-2h113.53zm124.47 0h-113.53v-2H-21zM-259 1097.82h-1v-2h1z" fill="#999"/><path d="M-21 1096.82l-14.27 4.64v-9.27z" fill="#999"/><path d="M-20 1096.1v1.45l-16.27 5.3v-12.04zm-14.27 3.98l10.03-3.26-10.03-3.26z" fill="#999"/><use xlink:href="#al" transform="matrix(1,0,0,1,-145.475,1086.0233722192565) translate(0.004999999999999893 14.4)"/><path d="M-148.97 1189.36H-259v-2h110.03zm127.97 0h-110.03v-2H-21zM-259 1189.36h-1v-2h1z" fill="#999"/><path d="M-21 1188.36l-14.27 4.64v-9.27z" fill="#999"/><path d="M-20 1187.63v1.46l-16.27 5.27v-12.02zm-14.27 4l10.03-3.27-10.03-3.26z" fill="#999"/><use xlink:href="#am" transform="matrix(1,0,0,1,-148.975,1177.5615374119218) translate(0.005000000000000782 14.4)"/><path d="M-152.5 1141H-260v-2h107.5zm131.5 0h-107.5v-2H-21z" fill="#999"/><path fill="#999"/><path d="M-21 1140l-14.27 4.64v-9.28z" fill="#999"/><path d="M-20 1139.27v1.46l-16.27 5.28v-12zm-14.27 4l10.03-3.27-10.03-3.26z" fill="#999"/><use xlink:href="#an" transform="matrix(1,0,0,1,-152.5,1129.2) translate(0.005000000000000782 14.4)"/><path d="M-250 840h20v20h-20z" fill="none"/><path d="M-233.75 850c0 3.45-2.8 6.25-6.25 6.25s-6.25-2.8-6.25-6.25 2.8-6.25 6.25-6.25 6.25 2.8 6.25 6.25" stroke="#999" stroke-width="2" fill="#999"/><path d="M-531.48 1007.92H-579v-2h47.52zm70.48 0h-47.52v-2H-461zM-579 1007.92h-1v-2h1z" fill="#999"/><path d="M-461 1006.92l-14.27 4.64v-9.28z" fill="#999"/><path d="M-460 1006.2v1.45l-16.27 5.28v-12.02zm-14.27 3.98l10.03-3.26-10.03-3.26z" fill="#999"/><use xlink:href="#ao" transform="matrix(1,0,0,1,-531.475,996.1198171193174) translate(0.005000000000000782 14.4)"/><path d="M-531.48 1053.7H-579v-2h47.52zm70.48 0h-47.52v-2H-461zM-579 1053.7h-1v-2h1z" fill="#999"/><path d="M-461 1052.7l-14.27 4.62v-9.27z" fill="#999"/><path d="M-460 1051.96v1.46l-16.27 5.28v-12.02zm-14.27 4l10.03-3.27-10.03-3.27z" fill="#999"/><use xlink:href="#ap" transform="matrix(1,0,0,1,-531.475,1041.88889971565) translate(0.005000000000000782 14.4)"/><path d="M-460 765c0-2.76 2.24-5 5-5h90c2.76 0 5 2.24 5 5v90c0 2.76-2.24 5-5 5h-90c-2.76 0-5-2.24-5-5z" stroke="#666" stroke-width="2" fill="#fff"/><use xlink:href="#aq" transform="matrix(1,0,0,1,-455,765) translate(18.1 48.6)"/><path d="M-409.7 904.82v-22.26c0-.08-.07-.15-.15-.15-.08 0-.15-.06-.15-.14V860" stroke="#999" stroke-width="2" fill="none"/><path d="M-405.36 874.27h-9.28L-410 860z" fill="#999"/><path d="M-404 875.27h-12l4.95-15.27h2.1zm-9.26-2h6.52l-3.26-10.03z" fill="#999"/><path d="M-419 895h20v20h-20z" fill="none"/><path d="M-402.75 905c0 3.45-2.8 6.25-6.25 6.25s-6.25-2.8-6.25-6.25 2.8-6.25 6.25-6.25 6.25 2.8 6.25 6.25" stroke="#999" stroke-width="2" fill="#999"/><path d="M-520 800h20v20h-20z" fill="none"/><path d="M-503.75 810c0 3.45-2.8 6.25-6.25 6.25s-6.25-2.8-6.25-6.25 2.8-6.25 6.25-6.25 6.25 2.8 6.25 6.25" stroke="#999" stroke-width="2" fill="#999"/><path d="M-556.27 811H-579v-2h22.73zm95.27 0h-69.27v-2H-461zM-579 811h-1v-2h1z" fill="#999"/><path d="M-461 810l-14.27 4.64v-9.28z" fill="#999"/><path d="M-460 809.27v1.46l-16.27 5.28v-12zm-14.27 4l10.03-3.27-10.03-3.26z" fill="#999"/><use xlink:href="#ar" transform="matrix(1,0,0,1,-556.2682022589784,799.2) translate(0.005000000000000782 14.4)"/><path d="M-320 721h-184.33l-1.27.2-2 1.46-.8 2.5V810h-2v-85.16l1.1-3.4 2.9-2.13 1.9-.3H-320z" fill="#999"/><path d="M-320 720l-14.27 4.64v-9.28z" fill="#999"/><path d="M-319.97 718.96L-320 720v.68l.02.37-15.3 4.96v-12zm-13.3 4.3l10.03-3.26-10.03-3.26zM709.6 1093.7H681v-2h28.6zm59.4 0h-17.54v-2H769zM681 1093.7h-1v-2h1z" fill="#999"/><path d="M769 1092.7l-14.27 4.64v-9.27z" fill="#999"/><path d="M770 1091.98v1.45l-16.27 5.28v-12zm-14.27 3.98l10.03-3.26-10.03-3.26z" fill="#999"/><use xlink:href="#as" transform="matrix(1,0,0,1,709.6076585860803,1081.9015537418154) translate(0.004999999999999005 14.4)"/><path d="M705.55 1225.32H681v-2h24.55zm63.45 0h-24.55v-2H769zM681 1225.32h-1v-2h1z" fill="#999"/><path d="M769 1224.32l-14.27 4.64v-9.27z" fill="#999"/><path d="M770 1223.6v1.45l-16.27 5.28v-12.02zm-14.27 3.98l10.03-3.26-10.03-3.26z" fill="#999"/><use xlink:href="#Y" transform="matrix(1,0,0,1,705.55,1213.5229594518973) translate(0.004999999999999005 14.4)"/><path d="M-433.33 549.33V759" stroke="#999" stroke-width="2" fill="none"/><path d="M-433.33 759l-4.64-14.27h9.27z" fill="#999"/><path d="M-432.6 760h-1.46l-5.3-16.27h12.04zm-4-14.27l3.27 10.03 3.26-10.03z" fill="#999"/><path d="M321 1229.12h24c2.76 0 5 2.24 5 5v156.84c0 2.76 2.24 5 5 5h284" stroke="#999" stroke-width="2" fill="none"/><path d="M321 1230.12h-1v-2h1zM639 1395.96l-14.27 4.63v-9.28z" fill="#999"/><path d="M640 1395.23v1.45l-16.27 5.3v-12.03zm-14.27 4l10.03-3.27-10.03-3.26z" fill="#999"/><path d="M-389.4 607.23V759M-389.4 607.23v-3" stroke="#999" stroke-width="2" fill="none"/><path d="M-389.4 759l-4.65-14.27h9.27z" fill="#999"/><path d="M-388.7 760h-1.44l-5.28-16.27h12.02zm-3.97-14.27l3.26 10.03 3.25-10.03z" fill="#999"/><path d="M-442 538h20v20h-20z" fill="none"/><path d="M-425.75 548c0 3.45-2.8 6.25-6.25 6.25s-6.25-2.8-6.25-6.25 2.8-6.25 6.25-6.25 6.25 2.8 6.25 6.25" stroke="#999" stroke-width="2" fill="#999"/><path d="M-400 590h20v20h-20z" fill="none"/><path d="M-383.75 600c0 3.45-2.8 6.25-6.25 6.25s-6.25-2.8-6.25-6.25 2.8-6.25 6.25-6.25 6.25 2.8 6.25 6.25" stroke="#999" stroke-width="2" fill="#999"/><path d="M340 1219h20v20h-20z" fill="none"/><path d="M356.25 1229c0 3.45-2.8 6.25-6.25 6.25s-6.25-2.8-6.25-6.25 2.8-6.25 6.25-6.25 6.25 2.8 6.25 6.25" stroke="#999" stroke-width="2" fill="#999"/><path d="M374.8 850.2H321v-2h53.8zm264.2 0H438.7v-2H639zM321 850.2h-1v-2h1z" fill="#999"/><path d="M639 849.2l-14.27 4.62v-9.27z" fill="#999"/><path d="M640 848.46v1.45l-16.27 5.3v-12.02zm-14.27 4l10.03-3.27-10.03-3.27zM478.57 849.3l2.12 2.9.3 1.9V1036h-2V854.27l-.2-1.27-1.46-2-2.5-.8H438.7v-2h36.46zm-157.57.9v-2h53.8v2zM321 850.2h-1v-2h1z" fill="#999"/><path d="M480 1036l-4.64-14.27h9.28z" fill="#999"/><path d="M480.97 1036.26l-2.12-.57-4.86-14.97h12zm-4.23-13.53l3.26 10.03 3.26-10.03z" fill="#999"/><path d="M447.83 1691H380v-2h67.83zm140.74-842.43l2.12 2.9.3 1.9v831.8l-1.1 3.4-2.92 2.12-1.9.3h-83.35v-2h83.2l1.25-.2 2-1.46.82-2.5v-831.3l-.2-1.27-1.46-2-2.5-.82H438.7v-2h146.46zm-267.57.88v-2h53.8v2z" fill="#999"/><path d="M321 849.45h-1v-2h1zM394.27 1694.64L380 1690l14.27-4.64z" fill="#999"/><path d="M395.27 1696l-15.27-4.95v-2.1l15.27-4.96zm-12.03-6l10.03 3.26v-6.52z" fill="#999"/><use xlink:href="#J" transform="matrix(1,0,0,1,374.7904806149931,837.6549262800899) translate(0.004999999999999005 14.4)"/><use xlink:href="#at" transform="matrix(1,0,0,1,447.82877278780796,1679.2) translate(0.004999999999999005 14.4)"/><path d="M430.74 1651.96H381v-2h49.74zm137.83-497.98l2.12 2.9.3 1.9v487.34l-1.1 3.4-2.92 2.13-1.9.3h-37.64v-2h37.48l1.26-.2 2-1.46.82-2.5v-486.85l-.2-1.26-1.46-2.02-2.5-.8H540v-2h25.16z" fill="#999"/><path fill="#999"/><path d="M395.27 1655.6l-14.27-4.64 14.27-4.64z" fill="#999"/><path d="M396.27 1656.97l-16.27-5.3v-1.44l16.27-5.3zm-12.03-6l10.03 3.25v-6.52z" fill="#999"/><use xlink:href="#Z" transform="matrix(1,0,0,1,430.73993568982985,1640.1561936534263) translate(0.005000000000002558 14.4)"/><use xlink:href="#aa" transform="matrix(1,0,0,1,430.73993568982985,1640.1561936534263) translate(41.855000000000004 14.4)"/><path d="M1248.57 1154.1l2.12 2.92.3 1.9v406.24l-1.1 3.4-2.92 2.13-1.9.3H-535.16l-3.4-1.1-2.13-2.92-.3-1.9V1212.9l1.1-3.4 2.92-2.14 1.9-.3h19.04v2h-18.88l-1.26.2-2 1.46-.82 2.5v351.7l.2 1.26 1.46 2 2.5.82h1779.76l1.26-.2 2-1.46.82-2.5v-405.76l-.2-1.26-1.46-2-2.5-.82H1210v-2h35.16zM-461 1209.07h-26.1v-2h26.1z" fill="#999"/><path fill="#999"/><path d="M-461 1208.06l-14.27 4.63v-9.28z" fill="#999"/><path d="M-460 1207.33v1.45l-16.27 5.3v-12.03zm-14.27 4l10.03-3.27-10.03-3.26z" fill="#999"/><use xlink:href="#au" transform="matrix(1,0,0,1,-516.0356307452058,1197.2579096170628) translate(0.005000000000000782 14.4)"/><path d="M1019 962.15H705.08l-1.26.2-2 1.47-.82 2.5v121.46l-.3 1.9-2.13 2.9-3.4 1.12H681v-2h13.84l2.5-.8 1.46-2 .2-1.28V966l1.1-3.42 2.92-2.12 1.9-.3H1019zM681 1093.7h-1v-2h1z" fill="#999"/><path d="M1019 961.15l-14.27 4.64v-9.28z" fill="#999"/><path d="M1020 960.42v1.46l-16.27 5.28v-12.02zm-14.27 4l10.03-3.27-10.03-3.26z" fill="#999"/><path d="M-540 1270.2h79" stroke="#999" stroke-width="2" fill="none"/><path d="M-461 1270.2l-14.27 4.63v-9.27z" fill="#999"/><path d="M-460 1269.47v1.45l-16.27 5.3v-12.04zm-14.27 3.98l10.03-3.26-10.03-3.26z" fill="#999"/><use xlink:href="#av" transform="matrix(1,0,0,1,-529.9432814390796,1244.5941188427555) translate(0.005000000000002558 14.4)"/><use xlink:href="#ae" transform="matrix(1,0,0,1,-529.9432814390796,1244.5941188427555) translate(28.605 14.4)"/><path d="M-540 1328.12h79" stroke="#999" stroke-width="2" fill="none"/><path d="M-461 1328.12l-14.27 4.64v-9.27z" fill="#999"/><path d="M-460 1327.4v1.45l-16.27 5.28v-12.02zm-14.27 3.98l10.03-3.26-10.03-3.26z" fill="#999"/><use xlink:href="#av" transform="matrix(1,0,0,1,-530.700302310481,1302.5222116735888) translate(0.005000000000002558 14.4)"/><use xlink:href="#U" transform="matrix(1,0,0,1,-530.700302310481,1302.5222116735888) translate(28.605 14.4)"/><path d="M-550 1260h20v20h-20z" fill="none"/><path d="M-533.75 1270c0 3.45-2.8 6.25-6.25 6.25s-6.25-2.8-6.25-6.25 2.8-6.25 6.25-6.25 6.25 2.8 6.25 6.25" stroke="#999" stroke-width="2" fill="#999"/><path d="M-550 1320h20v20h-20z" fill="none"/><path d="M-533.75 1330c0 3.45-2.8 6.25-6.25 6.25s-6.25-2.8-6.25-6.25 2.8-6.25 6.25-6.25 6.25 2.8 6.25 6.25" stroke="#999" stroke-width="2" fill="#999"/><path d="M746.85 870.33H681v-2h65.85zm272.15 0H810.75v-2H1019zM681 870.33h-1v-2h1z" fill="#999"/><path d="M1019 869.33l-14.27 4.63v-9.27z" fill="#999"/><path d="M1020 868.6v1.45l-16.27 5.3V863.3zm-14.27 4l10.03-3.27-10.03-3.26z" fill="#999"/><use xlink:href="#J" transform="matrix(1,0,0,1,746.8507811003708,858.5275766029055) translate(0.004999999999999005 14.4)"/><path d="M848.57 869.44l2.12 2.9.3 1.9V1060h-2V874.4l-.2-1.26-1.46-2-2.5-.8h-34.1v-2h34.42zm-167.57.9v-2h65.85v2zM681 870.33h-1v-2h1z" fill="#999"/><path d="M850 1060l-4.64-14.27h9.28z" fill="#999"/><path d="M851.05 1060h-2.1l-4.96-15.27h12zm-4.3-13.27l3.25 10.03 3.26-10.03zM1181 1054h-2V932.72h2zm-2.43-190.8l2.12 2.9.3 1.9v43.12h-2v-42.97l-.2-1.26-1.46-2-2.5-.83H1061v-2h114.16zM1061 864.07h-1v-2h1z" fill="#999"/><path d="M1180 1054l-4.64-14.27h9.28z" fill="#999"/><path d="M1181.05 1054h-2.1l-4.96-15.27h12zm-4.3-13.27l3.25 10.03 3.26-10.03z" fill="#999"/><use xlink:href="#J" transform="matrix(1,0,0,1,1148.05,911.1200922975569) translate(0.004999999999999005 14.4)"/><path d="M1106 1091.66l.82 2.5 2 1.46 1.26.2H1149v2h-39.08l-1.9-.3-2.9-2.13-1.12-3.42v-33.4h2zm-2.43-130.4l2.12 2.9.3 1.9V1037h-2v-70.77l-.2-1.26-1.46-2-2.5-.82H1061v-2h39.16zM1061 962.15h-1v-2h1z" fill="#999"/><path d="M1149 1096.82l-14.27 4.64v-9.27z" fill="#999"/><path d="M1150 1096.1v1.45l-16.27 5.3v-12.04zm-14.27 3.98l10.03-3.26-10.03-3.26z" fill="#999"/><use xlink:href="#as" transform="matrix(1,0,0,1,1084.075,1036.9850694374716) translate(0.004999999999999005 14.4)"/><path d="M470 840h20v20h-20z" fill="none"/><path d="M486.25 850c0 3.45-2.8 6.25-6.25 6.25s-6.25-2.8-6.25-6.25 2.8-6.25 6.25-6.25 6.25 2.8 6.25 6.25" stroke="#999" stroke-width="2" fill="#999"/><path d="M580 840h20v20h-20z" fill="none"/><path d="M596.25 850c0 3.45-2.8 6.25-6.25 6.25s-6.25-2.8-6.25-6.25 2.8-6.25 6.25-6.25 6.25 2.8 6.25 6.25" stroke="#999" stroke-width="2" fill="#999"/><path d="M-830 1200v659" stroke="#999" stroke-width="2" fill="none"/><path fill="#999"/><path d="M-830 1859l-4.64-14.27h9.28z" fill="#999"/><path d="M-829.27 1860h-1.46l-5.28-16.27h12zm-4-14.27l3.27 10.03 3.26-10.03z" fill="#999"/><path d="M-830 1859v-658" stroke="#999" stroke-width="2" fill="none"/><path d="M-829 1860h-2v-1h2zM-825.36 1215.27h-9.28L-830 1201z" fill="#999"/><path d="M-824 1216.27h-12l5.27-16.27h1.46zm-9.26-2h6.52l-3.26-10.03z" fill="#999"/><path d="M850 1260v599" stroke="#999" stroke-width="2" fill="none"/><path fill="#999"/><path d="M850 1859l-4.64-14.27h9.28z" fill="#999"/><path d="M850.73 1860h-1.46l-5.28-16.27h12zm-4-14.27l3.27 10.03 3.26-10.03z" fill="#999"/><path d="M850 1859v-599" stroke="#999" stroke-width="2" fill="none"/><path d="M851 1860h-2v-1h2zM854.64 1274.27h-9.28L850 1260z" fill="#999"/><path d="M856 1275.27h-12l4.95-15.27h2.1zm-9.26-2h6.52l-3.26-10.03z" fill="#999"/><path d="M-760 2200h155c2.76 0 5 2.24 5 5v110c0 2.76-2.24 5-5 5h-150c-2.76 0-5-2.24-5-5zm16 0v120m-16-104h160" stroke="#666" stroke-width="2" fill="#fff"/><use xlink:href="#aw" transform="matrix(1,0,0,1,-744,2216) translate(40.574999999999996 55.6)"/><path d="M-679 2200h-2v-108.7h2zm0-130.3h-2V1961h2z" fill="#999"/><path fill="#999"/><path d="M-675.36 1975.27h-9.28L-680 1961z" fill="#999"/><path d="M-674 1976.27h-12l5.27-16.27h1.46zm-9.26-2h6.52l-3.26-10.03z" fill="#999"/><use xlink:href="#ax" transform="matrix(1,0,0,1,-710.925,2069.7) translate(0.004999999999999005 14.4)"/><path d="M310 2280h155c2.76 0 5 2.24 5 5v110c0 2.76-2.24 5-5 5H315c-2.76 0-5-2.24-5-5zm16 0v120m-16-104h160" stroke="#666" stroke-width="2" fill="#fff"/><use xlink:href="#ay" transform="matrix(1,0,0,1,326,2296) translate(40.574999999999996 55.6)"/><path d="M560 2280h155c2.76 0 5 2.24 5 5v110c0 2.76-2.24 5-5 5H565c-2.76 0-5-2.24-5-5zm16 0v120m-16-104h160" stroke="#666" stroke-width="2" fill="#fff"/><use xlink:href="#az" transform="matrix(1,0,0,1,576,2296) translate(47.099999999999994 55.6)"/><path d="M440 2105c0-2.76 2.24-5 5-5h130c2.76 0 5 2.24 5 5v50c0 2.76-2.24 5-5 5H445c-2.76 0-5-2.24-5-5z" stroke="#666" stroke-width="2" fill="#fff"/><use xlink:href="#aA" transform="matrix(1,0,0,1,440,2100) translate(38.025 22.799999999999997)"/><use xlink:href="#z" transform="matrix(1,0,0,1,440,2100) translate(27.125 44.4)"/><path d="M840 860h20v20h-20z" fill="none"/><path d="M856.25 870c0 3.45-2.8 6.25-6.25 6.25s-6.25-2.8-6.25-6.25 2.8-6.25 6.25-6.25 6.25 2.8 6.25 6.25" stroke="#999" stroke-width="2" fill="#999"/><path d="M690 1080h20v20h-20z" fill="none"/><path d="M706.25 1090c0 3.45-2.8 6.25-6.25 6.25s-6.25-2.8-6.25-6.25 2.8-6.25 6.25-6.25 6.25 2.8 6.25 6.25" stroke="#999" stroke-width="2" fill="#999"/><path d="M510 2120v-61 40" stroke="#999" stroke-width="2" fill="none"/><path d="M510 2099l-4.64-14.27h9.28z" fill="#999"/><path d="M510.73 2100h-1.46l-5.28-16.27h12zm-4-14.27l3.27 10.03 3.26-10.03z" fill="#999"/><path d="M510 2100v-139" stroke="#999" stroke-width="2" fill="none"/><path fill="#999"/><path d="M514.64 1975.27h-9.28L510 1961z" fill="#999"/><path d="M516 1976.27h-12l5.27-16.27h1.46zm-9.26-2h6.52l-3.26-10.03zM-679 2199h-2v-107.7h2zm0-129.3h-2V1961h2zM-679 1961h-2v-1h2z" fill="#999"/><path d="M-680 2199l-4.64-14.27h9.28z" fill="#999"/><path d="M-679.27 2200h-1.46l-5.28-16.27h12zm-4-14.27l3.27 10.03 3.26-10.03zM-576.9 843.14h-148.58l-1.26.2-2 1.46-.82 2.5v117.2l-.3 1.88-2.13 2.9-3.4 1.13h-264.7v-2h264.38l2.5-.8 1.46-2 .2-1.27V846.98l1.12-3.4 2.9-2.14 1.9-.3h148.75zm115.9 0h-46v-2h46z" fill="#999"/><path d="M-461 842.14l-14.27 4.63v-9.27z" fill="#999"/><path d="M-460 841.4v1.47l-16.27 5.28v-12.02zm-14.27 4l10.03-3.26-10.03-3.26z" fill="#999"/><use xlink:href="#aB" transform="matrix(1,0,0,1,-576.893693799256,831.3388746564397) translate(0.005000000000002558 14.4)"/><use xlink:href="#L" transform="matrix(1,0,0,1,-576.893693799256,831.3388746564397) translate(44.955000000000005 14.4)"/><path d="M-333.5 805.08l-.32 1.9-2.12 2.9-3.4 1.12H-360v-2h20.33l2.5-.82 1.45-2 .2-1.26v-2.95h2zm24.48-41.74h-20.4l-1.28.2-2 1.47-.8 2.5v12.87h-2v-13.2l1.1-3.4 2.9-2.12 1.9-.3H-309z" fill="#999"/><path fill="#999"/><path d="M-309.02 762.34l-14.27 4.64v-9.27z" fill="#999"/><path d="M-308.36 761.5l.84 1.4-16.77 5.46v-12.03zm-13.93 4.1l10.04-3.26-10.03-3.26z" fill="#999"/><use xlink:href="#aC" transform="matrix(1,0,0,1,-375.9623982819592,780.3717631530309) translate(0.005000000000002558 14.4)"/><path d="M-970 960h20v20h-20z" fill="none"/><path d="M-953.75 970c0 3.45-2.8 6.25-6.25 6.25s-6.25-2.8-6.25-6.25 2.8-6.25 6.25-6.25 6.25 2.8 6.25 6.25" stroke="#999" stroke-width="2" fill="#999"/><path d="M-440.32 501h-151.52l-2.5.82-1.46 2-.2 1.26V738h-2V504.92l.3-1.9 2.13-2.9 3.4-1.12h151.85zm248.85-5.84l-1.1 3.4-2.92 2.13-1.9.3h-161.07v-2h160.92l1.27-.2 2-1.46.8-2.5V421h2zM-191.47 421h-2v-1h2z" fill="#999"/><path d="M-597 738l-4.64-14.27h9.28z" fill="#999"/><path d="M-596.27 739h-1.46l-5.28-16.27h12zm-4-14.27l3.27 10.03 3.26-10.03z" fill="#999"/><use xlink:href="#aD" transform="matrix(1,0,0,1,-440.323006420339,489.2) translate(0.005000000000002558 14.4)"/><use xlink:href="#Q" transform="matrix(1,0,0,1,-440.323006420339,489.2) translate(43.90500000000001 14.4)"/><path d="M-580 391h-84.92l-1.26.2-2 1.46-.82 2.5v598.92l-.3 1.9-2.13 2.9-3.4 1.12h-165.13l-1.26.2-2 1.46-.82 2.5V1019h-2v-15.16l1.12-3.4 2.9-2.13 1.9-.3h164.96l2.5-.82 1.46-2 .2-1.26V394.84l1.1-3.4 2.92-2.13 1.9-.3H-580zM-844.04 1020h-2v-1h2z" fill="#999"/><path d="M-580 390l-14.27 4.64v-9.28z" fill="#999"/><path d="M-580 388.95v2.1l-15.27 4.96v-12zm-13.27 4.3l10.03-3.25-10.03-3.26z" fill="#999"/><use xlink:href="#aE" transform="matrix(1,0,0,1,-709.5146845883041,342.8) translate(48.90500000000001 14.4)"/><use xlink:href="#aF" transform="matrix(1,0,0,1,-709.5146845883041,342.8) translate(0.005000000000002558 36)"/><use xlink:href="#aG" transform="matrix(1,0,0,1,-709.5146845883041,342.8) translate(42.955000000000005 36)"/><path d="M899.27 1059h-2V488.52h2zm0-613.68h-2V421h2zM899.27 1060h-2v-1h2z" fill="#999"/><path d="M902.9 435.27h-9.27l4.64-14.27z" fill="#999"/><path d="M904.28 436.27h-12.02l5.28-16.27H899zm-9.27-2h6.53l-3.26-10.03z" fill="#999"/><use xlink:href="#aH" transform="matrix(1,0,0,1,841.3935895941363,445.31944010739096) translate(35.93000000000001 14.4)"/><use xlink:href="#aF" transform="matrix(1,0,0,1,841.3935895941363,445.31944010739096) translate(0.005000000000002558 36)"/><use xlink:href="#aG" transform="matrix(1,0,0,1,841.3935895941363,445.31944010739096) translate(42.955000000000005 36)"/><path d="M560 1144h20v20h-20z" fill="none"/><path d="M576.25 1154c0 3.45-2.8 6.25-6.25 6.25s-6.25-2.8-6.25-6.25 2.8-6.25 6.25-6.25 6.25 2.8 6.25 6.25" stroke="#999" stroke-width="2" fill="#999"/><path d="M374.8 850.2H321v-2h53.8zm107.3-5.93l-.3 1.9-2.13 2.9-3.4 1.12h-37.58v-2h37.24l2.5-.83 1.46-2 .2-1.26V483.63h2zm0-403.85h-2V421h2zM321 850.2h-1v-2h1z" fill="#999"/><path d="M485.74 435.27h-9.28L481.1 421z" fill="#999"/><path d="M487.1 436.27h-12l5.27-16.27h1.46zm-9.26-2h6.52l-3.26-10.03z" fill="#999"/><use xlink:href="#aI" transform="matrix(1,0,0,1,445.174856152558,440.417398741434) translate(0.005000000000002558 14.4)"/><use xlink:href="#aJ" transform="matrix(1,0,0,1,445.174856152558,440.417398741434) translate(46.90500000000001 14.4)"/><use xlink:href="#av" transform="matrix(1,0,0,1,445.174856152558,440.417398741434) translate(0.7050000000000054 36)"/><use xlink:href="#U" transform="matrix(1,0,0,1,445.174856152558,440.417398741434) translate(29.305000000000003 36)"/><path d="M-523.2 772.33l-.3 1.9-2.13 2.9-3.42 1.12H-579v-2h49.64l2.5-.82 1.45-2 .2-1.26V478.72h2zm0-336.8h-2V421h2zM-579 778.25h-1v-2h1z" fill="#999"/><path d="M-519.57 435.27h-9.27l4.64-14.27z" fill="#999"/><path d="M-518.44 435.52h-11.53l5.04-15.52h1.45zm-9.02-1.25h6.5l-3.24-10.03z" fill="#999"/><use xlink:href="#R" transform="matrix(1,0,0,1,-559.1042805763817,435.51535737547715) translate(0.005000000000002558 14.4)"/><use xlink:href="#aK" transform="matrix(1,0,0,1,-559.1042805763817,435.51535737547715) translate(27.955000000000005 14.4)"/><use xlink:href="#aL" transform="matrix(1,0,0,1,-559.1042805763817,435.51535737547715) translate(0.005000000000002558 36)"/><use xlink:href="#aM" transform="matrix(1,0,0,1,-559.1042805763817,435.51535737547715) translate(27.955000000000005 36)"/><path d="M446.7 1728.22H381v-2h65.7zm527.45-5.84l-1.1 3.4-2.92 2.13-1.9.32H531.56v-2h436.5l1.28-.2 2-1.47.8-2.5V1160h2z" fill="#999"/><path d="M395.27 1731.85l-14.27-4.63 14.27-4.64z" fill="#999"/><path d="M396.27 1733.23l-16.27-5.3v-1.44l16.27-5.3zm-12.03-6l10.03 3.25v-6.52z" fill="#999"/><use xlink:href="#ad" transform="matrix(1,0,0,1,446.7069021519248,1716.418231480382) translate(0.005000000000002558 14.4)"/><use xlink:href="#ae" transform="matrix(1,0,0,1,446.7069021519248,1716.418231480382) translate(45.955000000000005 14.4)"/><path d="M965 1150h20v20h-20z" fill="none"/><path d="M981.25 1160c0 3.45-2.8 6.25-6.25 6.25s-6.25-2.8-6.25-6.25 2.8-6.25 6.25-6.25 6.25 2.8 6.25 6.25" stroke="#999" stroke-width="2" fill="#999"/><path d="M1247.88 863.2l2.12 2.9.3 1.9v286h-2V868.15l-.2-1.26-1.46-2-2.5-.83H1061v-2h183.47zM1061 864.07h-1v-2h1z" fill="#999"/><path d="M1169 853h20v20h-20z" fill="none"/><path d="M1185.25 863c0 3.45-2.8 6.25-6.25 6.25s-6.25-2.8-6.25-6.25 2.8-6.25 6.25-6.25 6.25 2.8 6.25 6.25" stroke="#999" stroke-width="2" fill="#999"/><path d="M1240 1144h20v20h-20z" fill="none"/><path d="M1256.25 1154c0 3.45-2.8 6.25-6.25 6.25s-6.25-2.8-6.25-6.25 2.8-6.25 6.25-6.25 6.25 2.8 6.25 6.25" stroke="#999" stroke-width="2" fill="#999"/><path d="M-239 640h-2V480.6h2zm0-202.6h-2V421h2zM-239 640.03l-.8-.02h.8zm-.8-.02l-1.2.02.32-.02h.68z" fill="#999"/><path d="M-235.36 435.27h-9.28L-240 421z" fill="#999"/><path d="M-234 436.27h-12l5.27-16.27h1.46zm-9.26-2h6.52l-3.26-10.03z" fill="#999"/><use xlink:href="#R" transform="matrix(1,0,0,1,-266.45,437.39532395760676) translate(0.004999999999999005 14.4)"/><use xlink:href="#aJ" transform="matrix(1,0,0,1,-266.45,437.39532395760676) translate(27.955000000000002 14.4)"/><use xlink:href="#T" transform="matrix(1,0,0,1,-266.45,437.39532395760676) translate(0.004999999999999005 36)"/><use xlink:href="#aN" transform="matrix(1,0,0,1,-266.45,437.39532395760676) translate(27.955000000000002 36)"/><path d="M640 2280v-55c0-2.76-2.24-5-5-5H515c-2.76 0-5-2.24-5-5v-55" stroke="#999" stroke-width="2" fill="none"/><path fill="#999"/><path d="M514.64 2174.27h-9.28L510 2160z" fill="#999"/><path d="M516 2175.27h-12l4.95-15.27h2.1zm-9.26-2h6.52l-3.26-10.03z" fill="#999"/><path d="M390 2280v-54.5c0-2.76 2.24-5 5-5h109c2.76 0 5-2.24 5-5V2161" stroke="#999" stroke-width="2" fill="none"/><path fill="#999"/><path d="M513.64 2175.27h-9.28L509 2161z" fill="#999"/><path d="M515 2176.27h-12l5.27-16.27h1.46zm-9.26-2h6.52l-3.26-10.03z" fill="#999"/><path d="M510 2160v54.5c0 2.76-2.24 5-5 5H395.44c-2.76 0-5 2.24-5 5v54.5" stroke="#999" stroke-width="2" fill="none"/><path fill="#999"/><path d="M390.44 2279l-4.63-14.27h9.28z" fill="#999"/><path d="M391.17 2280h-1.45l-5.3-16.27h12.03zm-4-14.27l3.27 10.03 3.26-10.03z" fill="#999"/><path d="M510 2160v55c0 2.76 2.24 5 5 5h120c2.76 0 5 2.24 5 5v55" stroke="#999" stroke-width="2" fill="none"/><path fill="#999"/><path d="M640 2280l-4.64-14.27h9.28z" fill="#999"/><path d="M641.05 2280h-2.1l-4.96-15.27h12zm-4.3-13.27l3.25 10.03 3.26-10.03z" fill="#999"/><path d="M1000 1795c0-2.76 2.24-5 5-5h70c2.76 0 5 2.24 5 5v50c0 2.76-2.24 5-5 5h-70c-2.76 0-5-2.24-5-5z" stroke="#666" stroke-width="2" fill="#fff"/><use xlink:href="#aO" transform="matrix(1,0,0,1,1000,1790) translate(19.549999999999997 33.6)"/><path d="M1121.3 1765c0-2.76 2.22-5 5-5h142c2.75 0 5 2.24 5 5v110c0 2.76-2.25 5-5 5h-142c-2.78 0-5-2.24-5-5z" stroke="#666" stroke-width="2" fill="#fff"/><g><use xlink:href="#aP" transform="matrix(1,0,0,1,1121.2851828317478,1760) translate(14.974999999999994 63.6)"/><use xlink:href="#aQ" transform="matrix(1,0,0,1,1121.2851828317478,1760) translate(58.275 63.6)"/></g><path d="M1080 1820h40.34" stroke="#999" stroke-width="2" fill="none"/><path fill="#999"/><path d="M1120.34 1820l-14.27 4.64v-9.28z" fill="#999"/><path d="M1121.3 1819.26v1.48l-16.23 5.27v-12zm-14.23 4l10.03-3.26-10.03-3.26z" fill="#999"/><path d="M1121.3 1970h155c2.75 0 5 2.24 5 5v110c0 2.76-2.25 5-5 5h-150c-2.78 0-5-2.24-5-5zm16 0v120m-16-104h160" stroke="#666" stroke-width="2" fill="#fff"/><g><use xlink:href="#aR" transform="matrix(1,0,0,1,1137.2851828317478,1986) translate(52.525 55.6)"/></g><path d="M1197.3 1880v89" stroke="#999" stroke-width="2" fill="none"/><path fill="#999"/><path d="M1197.3 1969l-4.65-14.27h9.27z" fill="#999"/><path d="M1198 1970h-1.44l-5.3-16.27h12.04zm-3.97-14.27l3.26 10.03 3.24-10.03z" fill="#999"/><path d="M897.43 1261v554c0 2.76 2.24 5 5 5H1000" stroke="#999" stroke-width="2" fill="none"/><path d="M898.43 1261h-2v-1h2zM1000 1820l-14.27 4.64v-9.28z" fill="#999"/><path d="M1000 1818.95v2.1l-15.27 4.96v-12zm-13.27 4.3l10.03-3.25-10.03-3.26z" fill="#999"/><path d="M-1160 1505c0-2.76 2.24-5 5-5h150c2.76 0 5 2.24 5 5v110c0 2.76-2.24 5-5 5h-150c-2.76 0-5-2.24-5-5z" stroke="#666" stroke-width="2" fill="#fff"/><g><use xlink:href="#aS" transform="matrix(1,0,0,1,-1160,1500) translate(18.625 63.6)"/><use xlink:href="#aQ" transform="matrix(1,0,0,1,-1160,1500) translate(62.625 63.6)"/></g><path d="M-1160 1710h155c2.76 0 5 2.24 5 5v110c0 2.76-2.24 5-5 5h-150c-2.76 0-5-2.24-5-5zm16 0v120m-16-104h160" stroke="#666" stroke-width="2" fill="#fff"/><g><use xlink:href="#aT" transform="matrix(1,0,0,1,-1144,1726) translate(30.599999999999994 55.6)"/></g><path d="M-1080 1710v-89" stroke="#999" stroke-width="2" fill="none"/><path fill="#999"/><path d="M-1075.36 1635.27h-9.28l4.64-14.27z" fill="#999"/><path d="M-1074 1636.27h-12l5.27-16.27h1.46zm-9.26-2h6.52l-3.26-10.03z" fill="#999"/><path d="M-949.9 690.1c0 27.7-22.42 50.13-50.1 50.13s-50.1-22.44-50.1-50.12c0-27.66 22.42-50.1 50.1-50.1s50.1 22.44 50.1 50.1z" stroke="#666" stroke-width="2" fill="#fff"/><g><use xlink:href="#aU" transform="matrix(1,0,0,1,-1050.112955110245,640) translate(25.525 43.3)"/><use xlink:href="#aV" transform="matrix(1,0,0,1,-1050.112955110245,640) translate(18.624999999999996 64.9)"/></g><path d="M-949.9 690.1h68.67" stroke="#999" stroke-width="2" fill="none"/><path d="M-949.9 691.1h-.04l.05-1-.02-1h.03zM-881.23 690.1l-14.26 4.65v-9.27z" fill="#999"/><path d="M-880.23 689.4v1.44l-16.26 5.28V684.1zm-14.26 3.97l10.04-3.26-10.03-3.25z" fill="#999"/><path d="M-1120 1110h115c2.76 0 5-2.24 5-5V740.23" stroke="#999" stroke-width="2" fill="none"/><path fill="#999"/><path d="M-995.36 754.5h-9.28l4.64-14.27z" fill="#999"/><path d="M-1000 740.23l1.04-.04 4.97 15.3h-12l4.97-15.33zm-3.26 13.26h6.52l-3.26-10.04z" fill="#999"/><path d="M-1080 1500V695.1c0-2.75 2.24-5 5-5h24.9" stroke="#999" stroke-width="2" fill="none"/><path fill="#999"/><path d="M-1050.1 690.1l-14.28 4.65v-9.27z" fill="#999"/><path d="M-1050.06 689.08l-.05 1.03.03 1.05-15.3 4.97V684.1zm-13.32 4.3l10.03-3.27-10.03-3.25z" fill="#999"/><path d="M-1000 640v-35c0-2.76 2.24-5 5-5h159.9c2.75 0 5 2.24 5 5v35" stroke="#999" stroke-width="2" fill="none"/><path d="M-999 640.05l-1-.05-1 .04V640h2zM-830.1 640l-4.65-14.27h9.27z" fill="#999"/><path d="M-829.06 640h-2.1l-4.96-15.27h12.02zm-4.3-13.27l3.25 10.03 3.25-10.03zM-152.95 1236.7H-259v-2h106.05zm131.95 0h-106.05v-2H-21zM-259 1236.7h-1v-2h1z" fill="#999"/><path d="M-21 1235.7l-14.27 4.64v-9.27z" fill="#999"/><path d="M-20 1234.98v1.46l-16.27 5.28v-12.02zm-14.27 4l10.03-3.27-10.03-3.25z" fill="#999"/><g><use xlink:href="#aW" transform="matrix(1,0,0,1,-152.95,1224.9094212416333) translate(0.005000000000000782 14.4)"/></g><defs><path fill="#999" d="M24-248c120-7 223 5 221 122C244-46 201 0 124 0H24v-248zM76-40c74 7 117-18 117-86 0-67-45-88-117-82v168" id="aX"/><path fill="#999" d="M199 0l-22-63H83L61 0H9l90-248h61L250 0h-51zm-33-102l-36-108c-10 38-24 72-36 108h72" id="aY"/><path fill="#999" d="M136-208V0H84v-208H4v-40h212v40h-80" id="aZ"/><path fill="#999" d="M24-248c93 1 206-16 204 79-1 75-69 88-152 82V0H24v-248zm52 121c47 0 100 7 100-41 0-47-54-39-100-39v80" id="ba"/><path fill="#999" d="M186 0v-106H76V0H24v-248h52v99h110v-99h50V0h-50" id="bb"/><g id="a"><use transform="matrix(0.09876543209876544,0,0,0.09876543209876544,0,0)" xlink:href="#aX"/><use transform="matrix(0.09876543209876544,0,0,0.09876543209876544,25.58024691358025,0)" xlink:href="#aY"/><use transform="matrix(0.09876543209876544,0,0,0.09876543209876544,48.49382716049384,0)" xlink:href="#aZ"/><use transform="matrix(0.09876543209876544,0,0,0.09876543209876544,67.4567901234568,0)" xlink:href="#aY"/><use transform="matrix(0.09876543209876544,0,0,0.09876543209876544,93.03703703703705,0)" xlink:href="#ba"/><use transform="matrix(0.09876543209876544,0,0,0.09876543209876544,114.07407407407409,0)" xlink:href="#aY"/><use transform="matrix(0.09876543209876544,0,0,0.09876543209876544,136.98765432098767,0)" xlink:href="#aZ"/><use transform="matrix(0.09876543209876544,0,0,0.09876543209876544,158.6172839506173,0)" xlink:href="#bb"/></g><path fill="#999" d="M24-231v-30h32v30H24zM-9 49c24 4 33-6 33-30v-209h32V24c2 40-23 58-65 49V49" id="bc"/><path fill="#999" d="M24-231v-30h32v30H24zM24 0v-190h32V0H24" id="bd"/><path fill="#999" d="M179-190L93 31C79 59 56 82 12 73V49c39 6 53-20 64-50L1-190h34L92-34l54-156h33" id="be"/><path fill="#999" d="M84 4C-5 8 30-112 23-190h32v120c0 31 7 50 39 49 72-2 45-101 50-169h31l1 190h-30c-1-10 1-25-2-33-11 22-28 36-60 37" id="bf"/><path fill="#999" d="M141-36C126-15 110 5 73 4 37 3 15-17 15-53c-1-64 63-63 125-63 3-35-9-54-41-54-24 1-41 7-42 31l-33-3c5-37 33-52 76-52 45 0 72 20 72 64v82c-1 20 7 32 28 27v20c-31 9-61-2-59-35zM48-53c0 20 12 33 32 33 41-3 63-29 60-74-43 2-92-5-92 41" id="bg"/><path fill="#999" d="M117-194c89-4 53 116 60 194h-32v-121c0-31-8-49-39-48C34-167 62-67 57 0H25l-1-190h30c1 10-1 24 2 32 11-22 29-35 61-36" id="bh"/><g id="b"><use transform="matrix(0.06172839506172778,0,0,0.06172839506172778,0,0)" xlink:href="#bc"/><use transform="matrix(0.06172839506172778,0,0,0.06172839506172778,4.876543209876495,0)" xlink:href="#bd"/><use transform="matrix(0.06172839506172778,0,0,0.06172839506172778,9.75308641975299,0)" xlink:href="#be"/><use transform="matrix(0.06172839506172778,0,0,0.06172839506172778,20.86419753086399,0)" xlink:href="#bf"/><use transform="matrix(0.06172839506172778,0,0,0.06172839506172778,33.209876543209546,0)" xlink:href="#bg"/><use transform="matrix(0.06172839506172778,0,0,0.06172839506172778,45.5555555555551,0)" xlink:href="#bh"/></g><path fill="#999" d="M32 76v-337h29V76H32" id="bi"/><use transform="matrix(0.06172839506172778,0,0,0.06172839506172778,0,0)" xlink:href="#bi" id="c"/><path fill="#999" d="M190 0L58-211 59 0H30v-248h39L202-35l-2-213h31V0h-41" id="bj"/><path fill="#999" d="M100-194c62-1 85 37 85 99 1 63-27 99-86 99S16-35 15-95c0-66 28-99 85-99zM99-20c44 1 53-31 53-75 0-43-8-75-51-75s-53 32-53 75 10 74 51 75" id="bk"/><path fill="#999" d="M108 0H70L1-190h34L89-25l56-165h34" id="bl"/><path fill="#999" d="M100-194c63 0 86 42 84 106H49c0 40 14 67 53 68 26 1 43-12 49-29l28 8c-11 28-37 45-77 45C44 4 14-33 15-96c1-61 26-98 85-98zm52 81c6-60-76-77-97-28-3 7-6 17-6 28h103" id="bm"/><path fill="#999" d="M210-169c-67 3-38 105-44 169h-31v-121c0-29-5-50-35-48C34-165 62-65 56 0H25l-1-190h30c1 10-1 24 2 32 10-44 99-50 107 0 11-21 27-35 58-36 85-2 47 119 55 194h-31v-121c0-29-5-49-35-48" id="bn"/><path fill="#999" d="M115-194c53 0 69 39 70 98 0 66-23 100-70 100C84 3 66-7 56-30L54 0H23l1-261h32v101c10-23 28-34 59-34zm-8 174c40 0 45-34 45-75 0-40-5-75-45-74-42 0-51 32-51 76 0 43 10 73 51 73" id="bo"/><path fill="#999" d="M114-163C36-179 61-72 57 0H25l-1-190h30c1 12-1 29 2 39 6-27 23-49 58-41v29" id="bp"/><g id="d"><use transform="matrix(0.06172839506172778,0,0,0.06172839506172778,0,0)" xlink:href="#bj"/><use transform="matrix(0.06172839506172778,0,0,0.06172839506172778,15.987654320987495,0)" xlink:href="#bk"/><use transform="matrix(0.06172839506172778,0,0,0.06172839506172778,28.33333333333305,0)" xlink:href="#bl"/><use transform="matrix(0.06172839506172778,0,0,0.06172839506172778,39.44444444444405,0)" xlink:href="#bm"/><use transform="matrix(0.06172839506172778,0,0,0.06172839506172778,51.79012345678961,0)" xlink:href="#bn"/><use transform="matrix(0.06172839506172778,0,0,0.06172839506172778,70.24691358024621,0)" xlink:href="#bo"/><use transform="matrix(0.06172839506172778,0,0,0.06172839506172778,82.59259259259177,0)" xlink:href="#bm"/><use transform="matrix(0.06172839506172778,0,0,0.06172839506172778,94.93827160493733,0)" xlink:href="#bp"/></g><path fill="#999" d="M101-251c82-7 93 87 43 132L82-64C71-53 59-42 53-27h129V0H18c2-99 128-94 128-182 0-28-16-43-45-43s-46 15-49 41l-32-3c6-41 34-60 81-64" id="bq"/><path fill="#999" d="M101-251c68 0 85 55 85 127S166 4 100 4C33 4 14-52 14-124c0-73 17-127 87-127zm-1 229c47 0 54-49 54-102s-4-102-53-102c-51 0-55 48-55 102 0 53 5 102 54 102" id="br"/><path fill="#999" d="M68-38c1 34 0 65-14 84H32c9-13 17-26 17-46H33v-38h35" id="bs"/><g id="e"><use transform="matrix(0.06172839506172778,0,0,0.06172839506172778,0,0)" xlink:href="#bq"/><use transform="matrix(0.06172839506172778,0,0,0.06172839506172778,12.345679012345556,0)" xlink:href="#br"/><use transform="matrix(0.06172839506172778,0,0,0.06172839506172778,24.691358024691112,0)" xlink:href="#bs"/></g><path fill="#999" d="M27 0v-27h64v-190l-56 39v-29l58-41h29v221h61V0H27" id="bt"/><path fill="#999" d="M64 0c3-98 48-159 88-221H18v-27h164v26C143-157 98-101 97 0H64" id="bu"/><g id="f"><use transform="matrix(0.06172839506172778,0,0,0.06172839506172778,0,0)" xlink:href="#bq"/><use transform="matrix(0.06172839506172778,0,0,0.06172839506172778,12.345679012345556,0)" xlink:href="#br"/><use transform="matrix(0.06172839506172778,0,0,0.06172839506172778,24.691358024691112,0)" xlink:href="#bt"/><use transform="matrix(0.06172839506172778,0,0,0.06172839506172778,37.03703703703667,0)" xlink:href="#bu"/></g><path fill="#333" d="M182-130c37 4 62 22 62 59C244 23 116-4 24 0v-248c84 5 203-23 205 63 0 31-19 50-47 55zM76-148c40-3 101 13 101-30 0-44-60-28-101-31v61zm0 110c48-3 116 14 116-37 0-48-69-32-116-35v72" id="bv"/><path fill="#333" d="M238-95c0 69-44 99-111 99C63 4 22-25 22-93v-155h51v151c-1 38 19 59 55 60 90 1 49-130 58-211h52v153" id="bw"/><path fill="#333" d="M169-182c-1-43-94-46-97-3 18 66 151 10 154 114 3 95-165 93-204 36-6-8-10-19-12-30l50-8c3 46 112 56 116 5-17-69-150-10-154-114-4-87 153-88 188-35 5 8 8 18 10 28" id="bx"/><g id="g"><use transform="matrix(0.05,0,0,0.05,0,0)" xlink:href="#bv"/><use transform="matrix(0.05,0,0,0.05,12.950000000000001,0)" xlink:href="#bw"/><use transform="matrix(0.05,0,0,0.05,25.900000000000002,0)" xlink:href="#bx"/></g><path fill="#333" d="M24-248c120-7 223 5 221 122C244-46 201 0 124 0H24v-248zM76-40c74 7 117-18 117-86 0-67-45-88-117-82v168" id="by"/><path fill="#333" d="M25-224v-37h50v37H25zM25 0v-190h50V0H25" id="bz"/><path fill="#333" d="M137-138c1-29-70-34-71-4 15 46 118 7 119 86 1 83-164 76-172 9l43-7c4 19 20 25 44 25 33 8 57-30 24-41C81-84 22-81 20-136c-2-80 154-74 161-7" id="bA"/><path fill="#333" d="M135-194c53 0 70 44 70 98 0 56-19 98-73 100-31 1-45-17-59-34 3 33 2 69 2 105H25l-1-265h48c2 10 0 23 3 31 11-24 29-35 60-35zM114-30c33 0 39-31 40-66 0-38-9-64-40-64-56 0-55 130 0 130" id="bB"/><path fill="#333" d="M133-34C117-15 103 5 69 4 32 3 11-16 11-54c-1-60 55-63 116-61 1-26-3-47-28-47-18 1-26 9-28 27l-52-2c7-38 36-58 82-57s74 22 75 68l1 82c-1 14 12 18 25 15v27c-30 8-71 5-69-32zm-48 3c29 0 43-24 42-57-32 0-66-3-65 30 0 17 8 27 23 27" id="bC"/><path fill="#333" d="M115-3C79 11 28 4 28-45v-112H4v-33h27l15-45h31v45h36v33H77v99c-1 23 16 31 38 25v30" id="bD"/><path fill="#333" d="M190-63c-7 42-38 67-86 67-59 0-84-38-90-98-12-110 154-137 174-36l-49 2c-2-19-15-32-35-32-30 0-35 28-38 64-6 74 65 87 74 30" id="bE"/><path fill="#333" d="M114-157C55-157 80-60 75 0H25v-261h50l-1 109c12-26 28-41 61-42 86-1 58 113 63 194h-50c-7-57 23-157-34-157" id="bF"/><path fill="#333" d="M185-48c-13 30-37 53-82 52C43 2 14-33 14-96s30-98 90-98c62 0 83 45 84 108H66c0 31 8 55 39 56 18 0 30-7 34-22zm-45-69c5-46-57-63-70-21-2 6-4 13-4 21h74" id="bG"/><path fill="#333" d="M135-150c-39-12-60 13-60 57V0H25l-1-190h47c2 13-1 29 3 40 6-28 27-53 61-41v41" id="bH"/><g id="h"><use transform="matrix(0.05,0,0,0.05,0,0)" xlink:href="#by"/><use transform="matrix(0.05,0,0,0.05,12.950000000000001,0)" xlink:href="#bz"/><use transform="matrix(0.05,0,0,0.05,17.950000000000003,0)" xlink:href="#bA"/><use transform="matrix(0.05,0,0,0.05,27.950000000000003,0)" xlink:href="#bB"/><use transform="matrix(0.05,0,0,0.05,38.900000000000006,0)" xlink:href="#bC"/><use transform="matrix(0.05,0,0,0.05,48.900000000000006,0)" xlink:href="#bD"/><use transform="matrix(0.05,0,0,0.05,54.85,0)" xlink:href="#bE"/><use transform="matrix(0.05,0,0,0.05,64.85000000000001,0)" xlink:href="#bF"/><use transform="matrix(0.05,0,0,0.05,75.80000000000001,0)" xlink:href="#bG"/><use transform="matrix(0.05,0,0,0.05,85.80000000000001,0)" xlink:href="#bH"/></g><path fill="#333" d="M24-248c93 1 206-16 204 79-1 75-69 88-152 82V0H24v-248zm52 121c47 0 100 7 100-41 0-47-54-39-100-39v80" id="bI"/><path fill="#333" d="M67-125c0 53 21 87 73 88 37 1 54-22 65-47l45 17C233-25 199 4 140 4 58 4 20-42 15-125 8-235 124-281 211-232c18 10 29 29 36 50l-46 12c-8-25-30-41-62-41-52 0-71 34-72 86" id="bJ"/><g id="i"><use transform="matrix(0.05,0,0,0.05,0,0)" xlink:href="#bI"/><use transform="matrix(0.05,0,0,0.05,12,0)" xlink:href="#bJ"/></g><path fill="#333" d="M24 0v-248h52V0H24" id="bK"/><path fill="#333" d="M230 0l2-204L168 0h-37L68-204 70 0H24v-248h70l56 185 57-185h69V0h-46" id="bL"/><g id="j"><use transform="matrix(0.05,0,0,0.05,0,0)" xlink:href="#bK"/><use transform="matrix(0.05,0,0,0.05,5,0)" xlink:href="#bL"/></g><path fill="#333" d="M54 7L4-261h42L97 7H54" id="bM"/><path fill="#333" d="M24 0v-248h195v40H76v63h132v40H76v65h150V0H24" id="bN"/><path fill="#333" d="M182 0l-62-99L58 0H3l86-130-79-118h55l55 88 55-88h55l-75 118L237 0h-55" id="bO"/><g id="k"><use transform="matrix(0.05,0,0,0.05,0,0)" xlink:href="#bK"/><use transform="matrix(0.05,0,0,0.05,5,0)" xlink:href="#by"/><use transform="matrix(0.05,0,0,0.05,17.950000000000003,0)" xlink:href="#bM"/><use transform="matrix(0.05,0,0,0.05,22.950000000000003,0)" xlink:href="#bN"/><use transform="matrix(0.05,0,0,0.05,34.95,0)" xlink:href="#bO"/></g><path fill="#333" d="M4 7l51-268h42L46 7H4" id="bP"/><g id="l"><use transform="matrix(0.05,0,0,0.05,0,0)" xlink:href="#bN"/><use transform="matrix(0.05,0,0,0.05,12,0)" xlink:href="#bO"/><use transform="matrix(0.05,0,0,0.05,24,0)" xlink:href="#bP"/><use transform="matrix(0.05,0,0,0.05,29,0)" xlink:href="#bL"/><use transform="matrix(0.05,0,0,0.05,43.95,0)" xlink:href="#bN"/><use transform="matrix(0.05,0,0,0.05,55.95,0)" xlink:href="#bL"/></g><path fill="#333" d="M275 0h-61l-44-196L126 0H64L0-248h53L97-49l45-199h58l43 199 44-199h52" id="bQ"/><g id="m"><use transform="matrix(0.05,0,0,0.05,0,0)" xlink:href="#bN"/><use transform="matrix(0.05,0,0,0.05,12,0)" xlink:href="#bO"/><use transform="matrix(0.05,0,0,0.05,24,0)" xlink:href="#bP"/><use transform="matrix(0.05,0,0,0.05,29,0)" xlink:href="#bQ"/><use transform="matrix(0.05,0,0,0.05,45.95,0)" xlink:href="#bv"/></g><g id="n"><use transform="matrix(0.05,0,0,0.05,0,0)" xlink:href="#by"/><use transform="matrix(0.05,0,0,0.05,12.950000000000001,0)" xlink:href="#bL"/></g><path fill="#333" d="M240-174c0 40-23 61-54 70L253 0h-59l-57-94H76V0H24v-248c93 4 217-23 216 74zM76-134c48-2 112 12 112-38 0-48-66-32-112-35v73" id="bR"/><path fill="#333" d="M195-6C206 82 75 100 31 46c-4-6-6-13-8-21l49-6c3 16 16 24 34 25 40 0 42-37 40-79-11 22-30 35-61 35-53 0-70-43-70-97 0-56 18-96 73-97 30 0 46 14 59 34l2-30h47zm-90-29c32 0 41-27 41-63 0-35-9-62-40-62-32 0-39 29-40 63 0 36 9 62 39 62" id="bS"/><g id="o"><use transform="matrix(0.05,0,0,0.05,0,0)" xlink:href="#bR"/><use transform="matrix(0.05,0,0,0.05,12.950000000000001,0)" xlink:href="#bG"/><use transform="matrix(0.05,0,0,0.05,22.950000000000003,0)" xlink:href="#bS"/><use transform="matrix(0.05,0,0,0.05,33.900000000000006,0)" xlink:href="#bz"/><use transform="matrix(0.05,0,0,0.05,38.900000000000006,0)" xlink:href="#bA"/><use transform="matrix(0.05,0,0,0.05,48.900000000000006,0)" xlink:href="#bD"/><use transform="matrix(0.05,0,0,0.05,54.85,0)" xlink:href="#bG"/><use transform="matrix(0.05,0,0,0.05,64.85000000000001,0)" xlink:href="#bH"/></g><path fill="#333" d="M136-208V0H84v-208H4v-40h212v40h-80" id="bT"/><use transform="matrix(0.05,0,0,0.05,0,0)" xlink:href="#bT" id="p"/><g id="q"><use transform="matrix(0.05,0,0,0.05,0,0)" xlink:href="#bx"/><use transform="matrix(0.05,0,0,0.05,12,0)" xlink:href="#bI"/></g><path fill="#333" d="M186 0v-106H76V0H24v-248h52v99h110v-99h50V0h-50" id="bU"/><g id="r"><use transform="matrix(0.05,0,0,0.05,0,0)" xlink:href="#bK"/><use transform="matrix(0.05,0,0,0.05,5,0)" xlink:href="#bU"/></g><path fill="#333" d="M195 0l-88-114-31 24V0H24v-248h52v113l112-113h60L142-143 257 0h-62" id="bV"/><g id="s"><use transform="matrix(0.05,0,0,0.05,0,0)" xlink:href="#bV"/><use transform="matrix(0.05,0,0,0.05,12.950000000000001,0)" xlink:href="#bv"/></g><path fill="#333" d="M199 0l-22-63H83L61 0H9l90-248h61L250 0h-51zm-33-102l-36-108c-10 38-24 72-36 108h72" id="bW"/><path fill="#333" d="M24 0v-248h52v208h133V0H24" id="bX"/><g id="t"><use transform="matrix(0.05,0,0,0.05,0,0)" xlink:href="#bW"/><use transform="matrix(0.05,0,0,0.05,12.950000000000001,0)" xlink:href="#bX"/><use transform="matrix(0.05,0,0,0.05,23.900000000000002,0)" xlink:href="#bw"/></g><g id="u"><use transform="matrix(0.05,0,0,0.05,0,0)" xlink:href="#bL"/><use transform="matrix(0.05,0,0,0.05,14.950000000000001,0)" xlink:href="#bw"/><use transform="matrix(0.05,0,0,0.05,27.900000000000002,0)" xlink:href="#bO"/><use transform="matrix(0.05,0,0,0.05,39.900000000000006,0)" xlink:href="#bN"/><use transform="matrix(0.05,0,0,0.05,51.900000000000006,0)" xlink:href="#bx"/></g><path fill="#333" d="M220-157c-53 9-28 100-34 157h-49v-107c1-27-5-49-29-50C55-147 81-57 75 0H25l-1-190h47c2 12-1 28 3 38 10-53 101-56 108 0 13-22 24-43 59-42 82 1 51 116 57 194h-49v-107c-1-25-5-48-29-50" id="bY"/><g id="v"><use transform="matrix(0.05,0,0,0.05,0,0)" xlink:href="#bK"/><use transform="matrix(0.05,0,0,0.05,5,0)" xlink:href="#bY"/><use transform="matrix(0.05,0,0,0.05,21,0)" xlink:href="#bY"/></g><path fill="#333" d="M144 0l-44-69L55 0H2l70-98-66-92h53l41 62 40-62h54l-67 91 71 99h-54" id="bZ"/><path fill="#333" d="M135-194c87-1 58 113 63 194h-50c-7-57 23-157-34-157-59 0-34 97-39 157H25l-1-190h47c2 12-1 28 3 38 12-26 28-41 61-42" id="ca"/><path fill="#333" d="M88-194c31-1 46 15 58 34l-1-101h50l1 261h-48c-2-10 0-23-3-31C134-8 116 4 84 4 32 4 16-41 15-95c0-56 19-97 73-99zm17 164c33 0 40-30 41-66 1-37-9-64-41-64s-38 30-39 65c0 43 13 65 39 65" id="cb"/><g id="w"><use transform="matrix(0.05,0,0,0.05,0,0)" xlink:href="#bN"/><use transform="matrix(0.05,0,0,0.05,12,0)" xlink:href="#bZ"/><use transform="matrix(0.05,0,0,0.05,22,0)" xlink:href="#bD"/><use transform="matrix(0.05,0,0,0.05,27.950000000000003,0)" xlink:href="#bG"/><use transform="matrix(0.05,0,0,0.05,37.95,0)" xlink:href="#ca"/><use transform="matrix(0.05,0,0,0.05,48.900000000000006,0)" xlink:href="#cb"/></g><g id="x"><use transform="matrix(0.05,0,0,0.05,0,0)" xlink:href="#bL"/><use transform="matrix(0.05,0,0,0.05,14.950000000000001,0)" xlink:href="#bw"/><use transform="matrix(0.05,0,0,0.05,27.900000000000002,0)" xlink:href="#bO"/></g><path fill="#333" d="M25 0v-261h50V0H25" id="cc"/><g id="y"><use transform="matrix(0.05,0,0,0.05,0,0)" xlink:href="#bx"/><use transform="matrix(0.05,0,0,0.05,12,0)" xlink:href="#bD"/><use transform="matrix(0.05,0,0,0.05,17.95,0)" xlink:href="#bC"/><use transform="matrix(0.05,0,0,0.05,27.950000000000003,0)" xlink:href="#cc"/><use transform="matrix(0.05,0,0,0.05,32.95,0)" xlink:href="#cc"/></g><path fill="#333" d="M110-194c64 0 96 36 96 99 0 64-35 99-97 99-61 0-95-36-95-99 0-62 34-99 96-99zm-1 164c35 0 45-28 45-65 0-40-10-65-43-65-34 0-45 26-45 65 0 36 10 65 43 65" id="cd"/><g id="z"><use transform="matrix(0.05,0,0,0.05,0,0)" xlink:href="#bJ"/><use transform="matrix(0.05,0,0,0.05,12.950000000000001,0)" xlink:href="#cd"/><use transform="matrix(0.05,0,0,0.05,23.900000000000002,0)" xlink:href="#ca"/><use transform="matrix(0.05,0,0,0.05,34.85,0)" xlink:href="#bD"/><use transform="matrix(0.05,0,0,0.05,40.800000000000004,0)" xlink:href="#bH"/><use transform="matrix(0.05,0,0,0.05,47.800000000000004,0)" xlink:href="#cd"/><use transform="matrix(0.05,0,0,0.05,58.75,0)" xlink:href="#cc"/><use transform="matrix(0.05,0,0,0.05,63.75,0)" xlink:href="#cc"/><use transform="matrix(0.05,0,0,0.05,68.75,0)" xlink:href="#bG"/><use transform="matrix(0.05,0,0,0.05,78.75,0)" xlink:href="#bH"/></g><g id="A"><use transform="matrix(0.05,0,0,0.05,0,0)" xlink:href="#bR"/><use transform="matrix(0.05,0,0,0.05,12.950000000000001,0)" xlink:href="#bG"/><use transform="matrix(0.05,0,0,0.05,22.950000000000003,0)" xlink:href="#bS"/><use transform="matrix(0.05,0,0,0.05,33.900000000000006,0)" xlink:href="#bz"/><use transform="matrix(0.05,0,0,0.05,38.900000000000006,0)" xlink:href="#bA"/><use transform="matrix(0.05,0,0,0.05,48.900000000000006,0)" xlink:href="#bD"/><use transform="matrix(0.05,0,0,0.05,54.85,0)" xlink:href="#bG"/><use transform="matrix(0.05,0,0,0.05,64.85000000000001,0)" xlink:href="#bH"/></g><use transform="matrix(0.05,0,0,0.05,0,0)" xlink:href="#bT" id="B"/><g id="C"><use transform="matrix(0.05,0,0,0.05,0,0)" xlink:href="#bx"/><use transform="matrix(0.05,0,0,0.05,12,0)" xlink:href="#bI"/></g><g id="D"><use transform="matrix(0.05,0,0,0.05,0,0)" xlink:href="#bK"/><use transform="matrix(0.05,0,0,0.05,5,0)" xlink:href="#bU"/></g><path fill="#333" d="M76-208v77h127v40H76V0H24v-248h183v40H76" id="ce"/><path fill="#333" d="M231 0h-52l-39-155L100 0H48L-1-190h46L77-45c9-52 24-97 36-145h53l37 145 32-145h46" id="cf"/><g id="E"><use transform="matrix(0.05,0,0,0.05,0,0)" xlink:href="#ce"/><use transform="matrix(0.05,0,0,0.05,10.950000000000001,0)" xlink:href="#cd"/><use transform="matrix(0.05,0,0,0.05,21.900000000000002,0)" xlink:href="#bH"/><use transform="matrix(0.05,0,0,0.05,28.900000000000002,0)" xlink:href="#cf"/><use transform="matrix(0.05,0,0,0.05,42.900000000000006,0)" xlink:href="#bC"/><use transform="matrix(0.05,0,0,0.05,52.900000000000006,0)" xlink:href="#bH"/><use transform="matrix(0.05,0,0,0.05,59.900000000000006,0)" xlink:href="#cb"/><use transform="matrix(0.05,0,0,0.05,70.85000000000001,0)" xlink:href="#bz"/><use transform="matrix(0.05,0,0,0.05,75.85000000000001,0)" xlink:href="#ca"/><use transform="matrix(0.05,0,0,0.05,86.80000000000001,0)" xlink:href="#bS"/></g><g id="F"><use transform="matrix(0.05,0,0,0.05,0,0)" xlink:href="#bw"/><use transform="matrix(0.05,0,0,0.05,12.950000000000001,0)" xlink:href="#ca"/><use transform="matrix(0.05,0,0,0.05,23.900000000000002,0)" xlink:href="#bz"/><use transform="matrix(0.05,0,0,0.05,28.900000000000002,0)" xlink:href="#bD"/></g><g id="G"><use transform="matrix(0.05,0,0,0.05,0,0)" xlink:href="#bE"/><use transform="matrix(0.05,0,0,0.05,10,0)" xlink:href="#cd"/><use transform="matrix(0.05,0,0,0.05,20.950000000000003,0)" xlink:href="#ca"/><use transform="matrix(0.05,0,0,0.05,31.900000000000006,0)" xlink:href="#bD"/><use transform="matrix(0.05,0,0,0.05,37.85000000000001,0)" xlink:href="#bH"/><use transform="matrix(0.05,0,0,0.05,44.85000000000001,0)" xlink:href="#cd"/><use transform="matrix(0.05,0,0,0.05,55.80000000000001,0)" xlink:href="#cc"/></g><path fill="#333" d="M176-78C186 10 51 31 16-35c-5-9-9-19-11-32l52-8c4 21 12 37 35 38 23 0 32-16 32-40v-130H75v-41h101v170" id="cg"/><path fill="#333" d="M85 4C-2 5 27-109 22-190h50c7 57-23 150 33 157 60-5 35-97 40-157h50l1 190h-47c-2-12 1-28-3-38-12 25-28 42-61 42" id="ch"/><path fill="#333" d="M168-19C124 19 11 11 16-68c3-43 29-60 59-75-25-44-12-111 53-106 37 3 64 15 64 52 0 43-40 52-69 68 12 22 27 41 43 59 14-19 21-38 28-64l37 13c-8 29-19 52-34 74 12 10 32 16 52 10v35c-28 11-65-2-81-17zm-58-139c19-9 43-14 43-39 0-14-10-22-25-22-34 0-33 41-18 61zM60-68c-3 40 55 47 79 25-18-20-34-42-48-67-18 8-30 20-31 42" id="ci"/><g id="H"><use transform="matrix(0.05,0,0,0.05,0,0)" xlink:href="#cg"/><use transform="matrix(0.05,0,0,0.05,10,0)" xlink:href="#ch"/><use transform="matrix(0.05,0,0,0.05,20.950000000000003,0)" xlink:href="#bY"/><use transform="matrix(0.05,0,0,0.05,36.95,0)" xlink:href="#bB"/><use transform="matrix(0.05,0,0,0.05,47.900000000000006,0)" xlink:href="#ci"/><use transform="matrix(0.05,0,0,0.05,60.85,0)" xlink:href="#bv"/><use transform="matrix(0.05,0,0,0.05,73.80000000000001,0)" xlink:href="#bH"/><use transform="matrix(0.05,0,0,0.05,80.80000000000001,0)" xlink:href="#bC"/><use transform="matrix(0.05,0,0,0.05,90.80000000000001,0)" xlink:href="#ca"/><use transform="matrix(0.05,0,0,0.05,101.75000000000001,0)" xlink:href="#bE"/><use transform="matrix(0.05,0,0,0.05,111.75,0)" xlink:href="#bF"/></g><g id="I"><use transform="matrix(0.05,0,0,0.05,0,0)" xlink:href="#bK"/><use transform="matrix(0.05,0,0,0.05,5,0)" xlink:href="#ca"/><use transform="matrix(0.05,0,0,0.05,15.950000000000001,0)" xlink:href="#bA"/><use transform="matrix(0.05,0,0,0.05,25.950000000000003,0)" xlink:href="#bD"/></g><g id="J"><use transform="matrix(0.05,0,0,0.05,0,0)" xlink:href="#bx"/><use transform="matrix(0.05,0,0,0.05,12,0)" xlink:href="#bz"/><use transform="matrix(0.05,0,0,0.05,17,0)" xlink:href="#bS"/><use transform="matrix(0.05,0,0,0.05,27.950000000000003,0)" xlink:href="#ca"/><use transform="matrix(0.05,0,0,0.05,38.900000000000006,0)" xlink:href="#bC"/><use transform="matrix(0.05,0,0,0.05,48.900000000000006,0)" xlink:href="#cc"/><use transform="matrix(0.05,0,0,0.05,53.900000000000006,0)" xlink:href="#bA"/></g><path fill="#333" d="M175 0L67-191c6 58 2 128 3 191H24v-248h59L193-55c-6-58-2-129-3-193h46V0h-61" id="cj"/><g id="K"><use transform="matrix(0.05,0,0,0.05,0,0)" xlink:href="#cj"/><use transform="matrix(0.05,0,0,0.05,12.950000000000001,0)" xlink:href="#bG"/><use transform="matrix(0.05,0,0,0.05,22.950000000000003,0)" xlink:href="#bZ"/><use transform="matrix(0.05,0,0,0.05,32.95,0)" xlink:href="#bD"/></g><g id="L"><use transform="matrix(0.05,0,0,0.05,0,0)" xlink:href="#bI"/><use transform="matrix(0.05,0,0,0.05,12,0)" xlink:href="#bJ"/></g><g id="M"><use transform="matrix(0.05,0,0,0.05,0,0)" xlink:href="#bK"/><use transform="matrix(0.05,0,0,0.05,5,0)" xlink:href="#ce"/><use transform="matrix(0.05,0,0,0.05,15.950000000000001,0)" xlink:href="#bM"/><use transform="matrix(0.05,0,0,0.05,20.950000000000003,0)" xlink:href="#bK"/><use transform="matrix(0.05,0,0,0.05,25.950000000000003,0)" xlink:href="#by"/></g><g id="N"><use transform="matrix(0.05,0,0,0.05,0,0)" xlink:href="#bD"/><use transform="matrix(0.05,0,0,0.05,5.95,0)" xlink:href="#bC"/><use transform="matrix(0.05,0,0,0.05,15.949999999999998,0)" xlink:href="#bH"/><use transform="matrix(0.05,0,0,0.05,22.95,0)" xlink:href="#bS"/><use transform="matrix(0.05,0,0,0.05,33.9,0)" xlink:href="#bG"/><use transform="matrix(0.05,0,0,0.05,43.9,0)" xlink:href="#bD"/></g><g id="O"><use transform="matrix(0.05,0,0,0.05,0,0)" xlink:href="#bA"/><use transform="matrix(0.05,0,0,0.05,10,0)" xlink:href="#bz"/><use transform="matrix(0.05,0,0,0.05,15,0)" xlink:href="#bS"/><use transform="matrix(0.05,0,0,0.05,25.950000000000003,0)" xlink:href="#ca"/><use transform="matrix(0.05,0,0,0.05,36.900000000000006,0)" xlink:href="#bC"/><use transform="matrix(0.05,0,0,0.05,46.900000000000006,0)" xlink:href="#cc"/></g><g id="P"><use transform="matrix(0.05,0,0,0.05,0,0)" xlink:href="#bI"/><use transform="matrix(0.05,0,0,0.05,12,0)" xlink:href="#bJ"/></g><g id="Q"><use transform="matrix(0.05,0,0,0.05,0,0)" xlink:href="#bx"/><use transform="matrix(0.05,0,0,0.05,12,0)" xlink:href="#bD"/><use transform="matrix(0.05,0,0,0.05,17.95,0)" xlink:href="#bC"/><use transform="matrix(0.05,0,0,0.05,27.950000000000003,0)" xlink:href="#cc"/><use transform="matrix(0.05,0,0,0.05,32.95,0)" xlink:href="#cc"/></g><g id="R"><use transform="matrix(0.05,0,0,0.05,0,0)" xlink:href="#bR"/><use transform="matrix(0.05,0,0,0.05,12.950000000000001,0)" xlink:href="#bZ"/></g><g id="S"><use transform="matrix(0.05,0,0,0.05,0,0)" xlink:href="#bW"/><use transform="matrix(0.05,0,0,0.05,12.950000000000001,0)" xlink:href="#cb"/><use transform="matrix(0.05,0,0,0.05,23.900000000000002,0)" xlink:href="#cb"/><use transform="matrix(0.05,0,0,0.05,34.85,0)" xlink:href="#bH"/></g><path fill="#333" d="M123 10C108 53 80 86 19 72V37c35 8 53-11 59-39L3-190h52l48 148c12-52 28-100 44-148h51" id="ck"/><g id="T"><use transform="matrix(0.05,0,0,0.05,0,0)" xlink:href="#bR"/><use transform="matrix(0.05,0,0,0.05,12.950000000000001,0)" xlink:href="#ck"/></g><g id="U"><use transform="matrix(0.05,0,0,0.05,0,0)" xlink:href="#bW"/><use transform="matrix(0.05,0,0,0.05,12.950000000000001,0)" xlink:href="#cb"/><use transform="matrix(0.05,0,0,0.05,23.900000000000002,0)" xlink:href="#cb"/><use transform="matrix(0.05,0,0,0.05,34.85,0)" xlink:href="#bH"/></g><path fill="#333" d="M140-251c80 0 125 45 125 126S219 4 139 4C58 4 15-44 15-125s44-126 125-126zm-1 214c52 0 73-35 73-88 0-50-21-86-72-86-52 0-73 35-73 86s22 88 72 88" id="cl"/><path fill="#333" d="M101-251c68 0 84 54 84 127C185-50 166 4 99 4S15-52 14-124c-1-75 17-127 87-127zm-1 216c37-5 36-46 36-89s4-89-36-89c-39 0-36 45-36 89 0 43-3 85 36 89" id="cm"/><g id="V"><use transform="matrix(0.05,0,0,0.05,0,0)" xlink:href="#cl"/><use transform="matrix(0.05,0,0,0.05,14,0)" xlink:href="#bI"/><use transform="matrix(0.05,0,0,0.05,26,0)" xlink:href="#cm"/></g><path fill="#333" d="M23 0v-37h61v-169l-59 37v-38l62-41h46v211h57V0H23" id="cn"/><g id="W"><use transform="matrix(0.05,0,0,0.05,0,0)" xlink:href="#cl"/><use transform="matrix(0.05,0,0,0.05,14,0)" xlink:href="#bI"/><use transform="matrix(0.05,0,0,0.05,26,0)" xlink:href="#cn"/></g><g id="X"><use transform="matrix(0.05,0,0,0.05,0,0)" xlink:href="#bK"/><use transform="matrix(0.05,0,0,0.05,5,0)" xlink:href="#bY"/><use transform="matrix(0.05,0,0,0.05,21,0)" xlink:href="#bY"/></g><g id="Y"><use transform="matrix(0.05,0,0,0.05,0,0)" xlink:href="#by"/><use transform="matrix(0.05,0,0,0.05,12.950000000000001,0)" xlink:href="#bC"/><use transform="matrix(0.05,0,0,0.05,22.950000000000003,0)" xlink:href="#bD"/><use transform="matrix(0.05,0,0,0.05,28.900000000000002,0)" xlink:href="#bC"/></g><g id="Z"><use transform="matrix(0.05,0,0,0.05,0,0)" xlink:href="#bW"/><use transform="matrix(0.05,0,0,0.05,12.950000000000001,0)" xlink:href="#bX"/><use transform="matrix(0.05,0,0,0.05,23.900000000000002,0)" xlink:href="#bw"/></g><g id="aa"><use transform="matrix(0.05,0,0,0.05,0,0)" xlink:href="#bR"/><use transform="matrix(0.05,0,0,0.05,12.950000000000001,0)" xlink:href="#bG"/><use transform="matrix(0.05,0,0,0.05,22.950000000000003,0)" xlink:href="#bA"/><use transform="matrix(0.05,0,0,0.05,32.95,0)" xlink:href="#ch"/><use transform="matrix(0.05,0,0,0.05,43.900000000000006,0)" xlink:href="#cc"/><use transform="matrix(0.05,0,0,0.05,48.900000000000006,0)" xlink:href="#bD"/></g><g id="ab"><use transform="matrix(0.05,0,0,0.05,0,0)" xlink:href="#bL"/><use transform="matrix(0.05,0,0,0.05,14.950000000000001,0)" xlink:href="#bG"/><use transform="matrix(0.05,0,0,0.05,24.950000000000003,0)" xlink:href="#bY"/></g><g id="ac"><use transform="matrix(0.05,0,0,0.05,0,0)" xlink:href="#by"/><use transform="matrix(0.05,0,0,0.05,12.950000000000001,0)" xlink:href="#bC"/><use transform="matrix(0.05,0,0,0.05,22.950000000000003,0)" xlink:href="#bD"/><use transform="matrix(0.05,0,0,0.05,28.900000000000002,0)" xlink:href="#bC"/></g><g id="ad"><use transform="matrix(0.05,0,0,0.05,0,0)" xlink:href="#bL"/><use transform="matrix(0.05,0,0,0.05,14.950000000000001,0)" xlink:href="#bG"/><use transform="matrix(0.05,0,0,0.05,24.950000000000003,0)" xlink:href="#bY"/></g><g id="ae"><use transform="matrix(0.05,0,0,0.05,0,0)" xlink:href="#by"/><use transform="matrix(0.05,0,0,0.05,12.950000000000001,0)" xlink:href="#bC"/><use transform="matrix(0.05,0,0,0.05,22.950000000000003,0)" xlink:href="#bD"/><use transform="matrix(0.05,0,0,0.05,28.900000000000002,0)" xlink:href="#bC"/></g><g id="af"><use transform="matrix(0.05,0,0,0.05,0,0)" xlink:href="#bK"/><use transform="matrix(0.05,0,0,0.05,5,0)" xlink:href="#by"/><use transform="matrix(0.05,0,0,0.05,17.950000000000003,0)" xlink:href="#bP"/><use transform="matrix(0.05,0,0,0.05,22.950000000000003,0)" xlink:href="#bN"/><use transform="matrix(0.05,0,0,0.05,34.95,0)" xlink:href="#bO"/></g><g id="ag"><use transform="matrix(0.05,0,0,0.05,0,0)" xlink:href="#bN"/><use transform="matrix(0.05,0,0,0.05,12,0)" xlink:href="#bO"/><use transform="matrix(0.05,0,0,0.05,24,0)" xlink:href="#bP"/><use transform="matrix(0.05,0,0,0.05,29,0)" xlink:href="#bL"/><use transform="matrix(0.05,0,0,0.05,43.95,0)" xlink:href="#bN"/><use transform="matrix(0.05,0,0,0.05,55.95,0)" xlink:href="#bL"/></g><g id="ah"><use transform="matrix(0.05,0,0,0.05,0,0)" xlink:href="#bL"/><use transform="matrix(0.05,0,0,0.05,14.950000000000001,0)" xlink:href="#bN"/><use transform="matrix(0.05,0,0,0.05,26.950000000000003,0)" xlink:href="#bL"/><use transform="matrix(0.05,0,0,0.05,41.900000000000006,0)" xlink:href="#bP"/><use transform="matrix(0.05,0,0,0.05,46.900000000000006,0)" xlink:href="#bQ"/><use transform="matrix(0.05,0,0,0.05,63.85,0)" xlink:href="#bv"/></g><g id="ai"><use transform="matrix(0.05,0,0,0.05,0,0)" xlink:href="#bv"/><use transform="matrix(0.05,0,0,0.05,12.950000000000001,0)" xlink:href="#bT"/><use transform="matrix(0.05,0,0,0.05,23.900000000000002,0)" xlink:href="#bv"/><use transform="matrix(0.05,0,0,0.05,36.85,0)" xlink:href="#bR"/></g><use transform="matrix(0.05,0,0,0.05,0,0)" xlink:href="#bW" id="aj"/><use transform="matrix(0.05,0,0,0.05,0,0)" xlink:href="#bv" id="ak"/><use transform="matrix(0.05,0,0,0.05,0,0)" xlink:href="#bT" id="al"/><g id="am"><use transform="matrix(0.05,0,0,0.05,0,0)" xlink:href="#bK"/><use transform="matrix(0.05,0,0,0.05,5,0)" xlink:href="#bU"/></g><g id="an"><use transform="matrix(0.05,0,0,0.05,0,0)" xlink:href="#bx"/><use transform="matrix(0.05,0,0,0.05,12,0)" xlink:href="#bI"/></g><g id="ao"><use transform="matrix(0.05,0,0,0.05,0,0)" xlink:href="#bR"/><use transform="matrix(0.05,0,0,0.05,12.950000000000001,0)" xlink:href="#bZ"/></g><g id="ap"><use transform="matrix(0.05,0,0,0.05,0,0)" xlink:href="#bR"/><use transform="matrix(0.05,0,0,0.05,12.950000000000001,0)" xlink:href="#ck"/></g><g id="aq"><use transform="matrix(0.05,0,0,0.05,0,0)" xlink:href="#bv"/><use transform="matrix(0.05,0,0,0.05,12.950000000000001,0)" xlink:href="#bT"/><use transform="matrix(0.05,0,0,0.05,23.900000000000002,0)" xlink:href="#bv"/><use transform="matrix(0.05,0,0,0.05,36.85,0)" xlink:href="#bQ"/></g><g id="ar"><use transform="matrix(0.05,0,0,0.05,0,0)" xlink:href="#cl"/><use transform="matrix(0.05,0,0,0.05,14,0)" xlink:href="#bI"/></g><g id="as"><use transform="matrix(0.05,0,0,0.05,0,0)" xlink:href="#bW"/><use transform="matrix(0.05,0,0,0.05,12.950000000000001,0)" xlink:href="#cb"/><use transform="matrix(0.05,0,0,0.05,23.900000000000002,0)" xlink:href="#cb"/><use transform="matrix(0.05,0,0,0.05,34.85,0)" xlink:href="#bH"/></g><g id="at"><use transform="matrix(0.05,0,0,0.05,0,0)" xlink:href="#bx"/><use transform="matrix(0.05,0,0,0.05,12,0)" xlink:href="#bz"/><use transform="matrix(0.05,0,0,0.05,17,0)" xlink:href="#bS"/><use transform="matrix(0.05,0,0,0.05,27.950000000000003,0)" xlink:href="#ca"/><use transform="matrix(0.05,0,0,0.05,38.900000000000006,0)" xlink:href="#bC"/><use transform="matrix(0.05,0,0,0.05,48.900000000000006,0)" xlink:href="#cc"/></g><g id="au"><use transform="matrix(0.05,0,0,0.05,0,0)" xlink:href="#bQ"/><use transform="matrix(0.05,0,0,0.05,16.95,0)" xlink:href="#bN"/></g><g id="av"><use transform="matrix(0.05,0,0,0.05,0,0)" xlink:href="#bQ"/><use transform="matrix(0.05,0,0,0.05,16.599999999999998,0)" xlink:href="#bH"/></g><path fill="#333" d="M182-182c0 78-84 86-111 141h115V0H12c-6-101 99-100 120-180 1-22-12-31-33-32-23 0-32 14-35 34l-49-3c5-45 32-70 84-70 51 0 83 22 83 69" id="co"/><g id="aw"><use transform="matrix(0.05,0,0,0.05,0,0)" xlink:href="#bx"/><use transform="matrix(0.05,0,0,0.05,12,0)" xlink:href="#bR"/><use transform="matrix(0.05,0,0,0.05,24.950000000000003,0)" xlink:href="#bW"/><use transform="matrix(0.05,0,0,0.05,37.900000000000006,0)" xlink:href="#bL"/><use transform="matrix(0.05,0,0,0.05,52.85,0)" xlink:href="#co"/></g><g id="ax"><use transform="matrix(0.05,0,0,0.05,0,0)" xlink:href="#bN"/><use transform="matrix(0.05,0,0,0.05,12,0)" xlink:href="#bZ"/><use transform="matrix(0.05,0,0,0.05,22,0)" xlink:href="#bD"/><use transform="matrix(0.05,0,0,0.05,27.950000000000003,0)" xlink:href="#bv"/><use transform="matrix(0.05,0,0,0.05,40.9,0)" xlink:href="#ch"/><use transform="matrix(0.05,0,0,0.05,51.85,0)" xlink:href="#bA"/></g><g id="ay"><use transform="matrix(0.05,0,0,0.05,0,0)" xlink:href="#bx"/><use transform="matrix(0.05,0,0,0.05,12,0)" xlink:href="#bR"/><use transform="matrix(0.05,0,0,0.05,24.950000000000003,0)" xlink:href="#bW"/><use transform="matrix(0.05,0,0,0.05,37.900000000000006,0)" xlink:href="#bL"/><use transform="matrix(0.05,0,0,0.05,52.85,0)" xlink:href="#cn"/></g><g id="az"><use transform="matrix(0.05,0,0,0.05,0,0)" xlink:href="#bw"/><use transform="matrix(0.05,0,0,0.05,12.950000000000001,0)" xlink:href="#bW"/><use transform="matrix(0.05,0,0,0.05,25.900000000000002,0)" xlink:href="#bR"/><use transform="matrix(0.05,0,0,0.05,38.85,0)" xlink:href="#bT"/></g><g id="aA"><use transform="matrix(0.05,0,0,0.05,0,0)" xlink:href="#bx"/><use transform="matrix(0.05,0,0,0.05,12,0)" xlink:href="#ck"/><use transform="matrix(0.05,0,0,0.05,22,0)" xlink:href="#bA"/><use transform="matrix(0.05,0,0,0.05,32,0)" xlink:href="#bD"/><use transform="matrix(0.05,0,0,0.05,37.95,0)" xlink:href="#bG"/><use transform="matrix(0.05,0,0,0.05,47.95,0)" xlink:href="#bY"/></g><g id="aB"><use transform="matrix(0.05,0,0,0.05,0,0)" xlink:href="#bI"/><use transform="matrix(0.05,0,0,0.05,12,0)" xlink:href="#bH"/><use transform="matrix(0.05,0,0,0.05,19,0)" xlink:href="#bG"/><use transform="matrix(0.05,0,0,0.05,29,0)" xlink:href="#cb"/></g><g id="aC"><use transform="matrix(0.05,0,0,0.05,0,0)" xlink:href="#bI"/><use transform="matrix(0.05,0,0,0.05,12,0)" xlink:href="#bH"/><use transform="matrix(0.05,0,0,0.05,19,0)" xlink:href="#bG"/><use transform="matrix(0.05,0,0,0.05,29,0)" xlink:href="#cb"/><use transform="matrix(0.05,0,0,0.05,39.95,0)" xlink:href="#bx"/><use transform="matrix(0.05,0,0,0.05,51.95,0)" xlink:href="#ch"/><use transform="matrix(0.05,0,0,0.05,62.900000000000006,0)" xlink:href="#bE"/><use transform="matrix(0.05,0,0,0.05,72.9,0)" xlink:href="#bE"/></g><g id="aD"><use transform="matrix(0.05,0,0,0.05,0,0)" xlink:href="#bK"/><use transform="matrix(0.05,0,0,0.05,5,0)" xlink:href="#ce"/><use transform="matrix(0.05,0,0,0.05,15.950000000000001,0)" xlink:href="#bP"/><use transform="matrix(0.05,0,0,0.05,20.950000000000003,0)" xlink:href="#bK"/><use transform="matrix(0.05,0,0,0.05,25.950000000000003,0)" xlink:href="#by"/></g><g id="aE"><use transform="matrix(0.05,0,0,0.05,0,0)" xlink:href="#bK"/><use transform="matrix(0.05,0,0,0.05,5,0)" xlink:href="#ce"/></g><g id="aF"><use transform="matrix(0.05,0,0,0.05,0,0)" xlink:href="#bx"/><use transform="matrix(0.05,0,0,0.05,12,0)" xlink:href="#bD"/><use transform="matrix(0.05,0,0,0.05,17.95,0)" xlink:href="#bC"/><use transform="matrix(0.05,0,0,0.05,27.950000000000003,0)" xlink:href="#cc"/><use transform="matrix(0.05,0,0,0.05,32.95,0)" xlink:href="#cc"/></g><path fill="#333" d="M84 4C32 4 15-41 15-95c0-55 18-99 73-99 29 0 47 12 58 34l2-30h48l-1 265h-49V-32C136-9 114 4 84 4zm21-34c32 0 41-29 41-66 0-36-9-64-40-64-33 0-39 30-40 65 0 43 13 65 39 65" id="cp"/><g id="aG"><use transform="matrix(0.05,0,0,0.05,0,0)" xlink:href="#bR"/><use transform="matrix(0.05,0,0,0.05,12.950000000000001,0)" xlink:href="#bG"/><use transform="matrix(0.05,0,0,0.05,22.950000000000003,0)" xlink:href="#cp"/><use transform="matrix(0.05,0,0,0.05,33.900000000000006,0)" xlink:href="#ch"/><use transform="matrix(0.05,0,0,0.05,44.85000000000001,0)" xlink:href="#bG"/><use transform="matrix(0.05,0,0,0.05,54.85,0)" xlink:href="#bA"/><use transform="matrix(0.05,0,0,0.05,64.85000000000001,0)" xlink:href="#bD"/></g><g id="aH"><use transform="matrix(0.05,0,0,0.05,0,0)" xlink:href="#bL"/><use transform="matrix(0.05,0,0,0.05,14.950000000000001,0)" xlink:href="#bN"/><use transform="matrix(0.05,0,0,0.05,26.950000000000003,0)" xlink:href="#bL"/></g><g id="aI"><use transform="matrix(0.05,0,0,0.05,0,0)" xlink:href="#bL"/><use transform="matrix(0.05,0,0,0.05,14.950000000000001,0)" xlink:href="#bN"/><use transform="matrix(0.05,0,0,0.05,26.950000000000003,0)" xlink:href="#bL"/></g><g id="aJ"><use transform="matrix(0.05,0,0,0.05,0,0)" xlink:href="#bN"/><use transform="matrix(0.05,0,0,0.05,12,0)" xlink:href="#cj"/></g><g id="aK"><use transform="matrix(0.05,0,0,0.05,0,0)" xlink:href="#bW"/><use transform="matrix(0.05,0,0,0.05,12.950000000000001,0)" xlink:href="#cb"/><use transform="matrix(0.05,0,0,0.05,23.900000000000002,0)" xlink:href="#cb"/><use transform="matrix(0.05,0,0,0.05,34.85,0)" xlink:href="#bH"/></g><g id="aL"><use transform="matrix(0.05,0,0,0.05,0,0)" xlink:href="#bR"/><use transform="matrix(0.05,0,0,0.05,12.950000000000001,0)" xlink:href="#ck"/></g><g id="aM"><use transform="matrix(0.05,0,0,0.05,0,0)" xlink:href="#bW"/><use transform="matrix(0.05,0,0,0.05,12.950000000000001,0)" xlink:href="#cb"/><use transform="matrix(0.05,0,0,0.05,23.900000000000002,0)" xlink:href="#cb"/><use transform="matrix(0.05,0,0,0.05,34.85,0)" xlink:href="#bH"/></g><g id="aN"><use transform="matrix(0.05,0,0,0.05,0,0)" xlink:href="#bN"/><use transform="matrix(0.05,0,0,0.05,12,0)" xlink:href="#cj"/></g><path fill="#333" d="M63-220v92h138v28H63V0H30v-248h175v28H63" id="cq"/><path fill="#333" d="M33 0v-248h34V0H33" id="cr"/><path fill="#333" d="M140-251c81 0 123 46 123 126C263-46 219 4 140 4 59 4 17-45 17-125s42-126 123-126zm0 227c63 0 89-41 89-101s-29-99-89-99c-61 0-89 39-89 99S79-25 140-24" id="cs"/><g id="aO"><use transform="matrix(0.05,0,0,0.05,0,0)" xlink:href="#cq"/><use transform="matrix(0.05,0,0,0.05,10.950000000000001,0)" xlink:href="#cr"/><use transform="matrix(0.05,0,0,0.05,15.950000000000001,0)" xlink:href="#cq"/><use transform="matrix(0.05,0,0,0.05,26.900000000000002,0)" xlink:href="#cs"/></g><path fill="#333" d="M147 0H94L2-248h55l64 206c17-72 42-137 63-206h54" id="ct"/><path fill="#333" d="M67-125c0 54 23 88 75 88 28 0 53-7 68-21v-34h-60v-39h108v91C232-14 192 4 140 4 58 4 20-42 15-125 8-236 126-280 215-234c19 10 29 26 37 47l-47 15c-11-23-29-39-63-39-53 1-75 33-75 86" id="cu"/><g id="aP"><use transform="matrix(0.05,0,0,0.05,0,0)" xlink:href="#ct"/><use transform="matrix(0.05,0,0,0.05,12,0)" xlink:href="#cu"/><use transform="matrix(0.05,0,0,0.05,26,0)" xlink:href="#bW"/></g><g id="aQ"><use transform="matrix(0.05,0,0,0.05,0,0)" xlink:href="#bJ"/><use transform="matrix(0.05,0,0,0.05,12.950000000000001,0)" xlink:href="#cd"/><use transform="matrix(0.05,0,0,0.05,23.900000000000002,0)" xlink:href="#ca"/><use transform="matrix(0.05,0,0,0.05,34.85,0)" xlink:href="#bD"/><use transform="matrix(0.05,0,0,0.05,40.800000000000004,0)" xlink:href="#cd"/><use transform="matrix(0.05,0,0,0.05,51.75,0)" xlink:href="#cc"/><use transform="matrix(0.05,0,0,0.05,56.75,0)" xlink:href="#cc"/><use transform="matrix(0.05,0,0,0.05,61.75,0)" xlink:href="#bG"/><use transform="matrix(0.05,0,0,0.05,71.75,0)" xlink:href="#bH"/></g><g id="aR"><use transform="matrix(0.05,0,0,0.05,0,0)" xlink:href="#ct"/><use transform="matrix(0.05,0,0,0.05,12,0)" xlink:href="#cu"/><use transform="matrix(0.05,0,0,0.05,26,0)" xlink:href="#bW"/></g><g id="aS"><use transform="matrix(0.05,0,0,0.05,0,0)" xlink:href="#bI"/><use transform="matrix(0.05,0,0,0.05,12,0)" xlink:href="#bx"/><use transform="matrix(0.05,0,0,0.05,24,0)" xlink:href="#bP"/><use transform="matrix(0.05,0,0,0.05,29,0)" xlink:href="#co"/></g><path fill="#333" d="M135-194c52 0 70 43 70 98 0 56-19 99-73 100-30 1-46-15-58-35L72 0H24l1-261h50v104c11-23 29-37 60-37zM114-30c31 0 40-27 40-66 0-37-7-63-39-63s-41 28-41 65c0 36 8 64 40 64" id="cv"/><g id="aT"><use transform="matrix(0.05,0,0,0.05,0,0)" xlink:href="#bV"/><use transform="matrix(0.05,0,0,0.05,12.950000000000001,0)" xlink:href="#bG"/><use transform="matrix(0.05,0,0,0.05,22.950000000000003,0)" xlink:href="#ck"/><use transform="matrix(0.05,0,0,0.05,32.95,0)" xlink:href="#cv"/><use transform="matrix(0.05,0,0,0.05,43.900000000000006,0)" xlink:href="#cd"/><use transform="matrix(0.05,0,0,0.05,54.85,0)" xlink:href="#bC"/><use transform="matrix(0.05,0,0,0.05,64.85000000000001,0)" xlink:href="#bH"/><use transform="matrix(0.05,0,0,0.05,71.85000000000001,0)" xlink:href="#cb"/></g><path fill="#333" d="M147 0L96-86 75-71V0H25v-261h50v150l67-79h53l-66 74L201 0h-54" id="cw"/><g id="aU"><use transform="matrix(0.05,0,0,0.05,0,0)" xlink:href="#bv"/><use transform="matrix(0.05,0,0,0.05,12.950000000000001,0)" xlink:href="#bH"/><use transform="matrix(0.05,0,0,0.05,19.950000000000003,0)" xlink:href="#bG"/><use transform="matrix(0.05,0,0,0.05,29.950000000000003,0)" xlink:href="#bC"/><use transform="matrix(0.05,0,0,0.05,39.95,0)" xlink:href="#cw"/></g><g id="aV"><use transform="matrix(0.05,0,0,0.05,0,0)" xlink:href="#bJ"/><use transform="matrix(0.05,0,0,0.05,12.950000000000001,0)" xlink:href="#cd"/><use transform="matrix(0.05,0,0,0.05,23.900000000000002,0)" xlink:href="#ca"/><use transform="matrix(0.05,0,0,0.05,34.85,0)" xlink:href="#bD"/><use transform="matrix(0.05,0,0,0.05,40.800000000000004,0)" xlink:href="#bH"/><use transform="matrix(0.05,0,0,0.05,47.800000000000004,0)" xlink:href="#cd"/><use transform="matrix(0.05,0,0,0.05,58.75,0)" xlink:href="#cc"/></g><g id="aW"><use transform="matrix(0.05,0,0,0.05,0,0)" xlink:href="#bV"/><use transform="matrix(0.05,0,0,0.05,12.950000000000001,0)" xlink:href="#bv"/></g></defs></g></svg>